<?xml version="1.0" encoding="UTF-8"?>
<svg id="Layer_1" data-name="Layer 1" xmlns="http://www.w3.org/2000/svg" viewBox="0 0 250 250">
  <defs>
    <style>
      .cls-1 {
        fill: #6ecd9c;
      }
    </style>
  </defs>
  <path class="cls-1" d="M159.91,139.39c32.85-2.72,67.81,8.82,80.96,41.44,6.82,16.9,7.86,32.57-14.23,34.3-36.68,2.87-77-2.25-114.07,0-24.58-.9-19.24-24.63-10.98-40.05,11.57-21.6,34.35-33.7,58.32-35.68Z"/>
  <path class="cls-1" d="M163.89,34.37c57.93-6.94,70.59,77.78,15.48,89.48-61.29,13.01-75.96-82.24-15.48-89.48Z"/>
  <path class="cls-1" d="M19.61,215.1c-25.12-3.11-12.64-34.43-3.33-47.33,20.37-28.22,61.26-34.66,92.83-24.17-21.16,16.08-35.01,45.2-25.99,71.51H19.61Z"/>
  <path class="cls-1" d="M66.87,49.35c45.23-6.2,60.11,58.33,18.93,72.93-53.53,18.98-71.75-65.69-18.93-72.93Z"/>
</svg>