<?xml version="1.0" encoding="UTF-8"?>
<svg id="Layer_1" data-name="Layer 1" xmlns="http://www.w3.org/2000/svg" viewBox="0 0 250 250">
  <defs>
    <style>
      .cls-1 {
        fill: #6ecd9c;
      }
    </style>
  </defs>
  <path class="cls-1" d="M13.74,235.76c-1.8-2.22-1.49-6.25-1.06-8.97,2.26-14.36,11.17-31.39,13.73-46.17C-20.03,95.32,53.2-6.09,149.26,14.73c69.45,15.06,107.76,90.23,79.04,155.68-26.21,59.72-97.03,84.27-155.33,55.08-16.16,1.75-36.63,11.33-52.17,12.51-2.33.18-5.54-.36-7.06-2.23ZM30.44,220.04l44.52-10.09c41.95,21.68,92.45,15.29,123.99-20.88,50.51-57.93,16.24-149.41-59.29-160.74C55.69,15.73-1.4,107.19,42.53,178.54l-12.09,41.5Z"/>
</svg>