<?xml version="1.0" encoding="UTF-8"?>
<svg id="Layer_1" data-name="Layer 1" xmlns="http://www.w3.org/2000/svg" viewBox="0 0 250 250">
  <defs>
    <style>
      .cls-1 {
        fill: #6ecd9c;
      }
    </style>
  </defs>
  <path class="cls-1" d="M168.8,176.53h-18c.19-26.45,28.32-34.22,38.19-56.31,20.2-45.18-12.68-95.91-61.64-97.74-51.5-1.92-88.06,52.69-65.43,99.42,10.28,21.22,37.64,29.03,36.88,54.62h-18c-.27-13.61-15.63-21.05-23.97-30.53C8.57,91.2,53.53,4.47,125.3,4.47c70.17,0,115.17,84.38,69.47,139.53-8.92,10.76-24.52,17.81-25.97,32.53Z"/>
  <polygon class="cls-1" points="168.8 193.53 168.8 211.53 82.3 211.53 80.8 210.03 80.8 193.53 168.8 193.53"/>
  <rect class="cls-1" x="98.8" y="227.53" width="53" height="18"/>
</svg>