<?xml version="1.0" encoding="UTF-8"?>
<svg id="Layer_1" data-name="Layer 1" xmlns="http://www.w3.org/2000/svg" viewBox="0 0 250 250">
  <defs>
    <style>
      .cls-1 {
        fill: #6ecd9c;
      }
    </style>
  </defs>
  <path class="cls-1" d="M124.98,4.94l105.04,36.52.51,2.49c-1.77,29.66,2.18,61.67-.07,91.04-4.08,53.29-58.83,93.95-105.49,110.07-47.38-16.4-101.49-57.02-105.49-111.07-2.15-29.12,1.63-60.66-.07-90.04l.51-2.49L124.98,4.94ZM209.35,56.64l-84.38-29.04-82.49,28.38-1.04,2.96c2.94,30.5-6.26,69.62,6.2,97.91,13.53,30.73,47.23,52.98,77.36,65.2,33.46-13.25,73.02-40.77,81.63-77.93,6.34-27.38,1.27-59.39,2.73-87.49Z"/>
  <polygon class="cls-1" points="173.98 72.52 189.47 87 114.85 160.43 69.5 117 84.98 101.52 114.85 130.43 173.98 72.52"/>
</svg>