<?xml version="1.0" encoding="UTF-8"?>
<svg id="Layer_1" data-name="Layer 1" xmlns="http://www.w3.org/2000/svg" viewBox="0 0 250 250">
  <defs>
    <style>
      .cls-1 {
        fill: #6ecd9c;
      }
    </style>
  </defs>
  <path class="cls-1" d="M210.76,5.08c9.56,23.68,21.9,46.44,31.34,70.16,1.01,2.54,3.2,6.27,2.43,8.7l-116.18,157.91-3.89,3.06L5.31,81.92,40.58,5.08h170.18ZM94.92,19.92h-46.5l-25.5,57h46.5l25.5-57ZM164.92,76.92l-24.49-56.01c-2.99-2.64-23.74-.01-29.05-1.06l-26.46,57.07h80ZM202.92,19.92h-48l25,57h47l-24-57ZM118.92,91.92H28.92l90,121v-121ZM220.92,91.92h-89v121l89-121Z"/>
</svg>