<?xml version="1.0" encoding="UTF-8"?>
<svg id="Layer_1" data-name="Layer 1" xmlns="http://www.w3.org/2000/svg" viewBox="0 0 250 250">
  <defs>
    <style>
      .cls-1 {
        fill: #6ecd9c;
      }
    </style>
  </defs>
  <path class="cls-1" d="M210.93,12.95c11.32-1.4,25.28,4.28,26.1,17.08l-.09,192.66c-6.91,19.21-36.54,19.42-44.18.58l-.49-194.22c1.82-8.71,10-15.03,18.65-16.1Z"/>
  <path class="cls-1" d="M122.55,87.43c10.59-1.25,22.89,5.23,25.08,16.12l-.11,118.12c-4.79,21.49-42.55,20.49-44.64-1.86l.1-117.17c2.3-8.49,11.07-14.21,19.57-15.21Z"/>
  <path class="cls-1" d="M33.18,161.9c10.73-1.12,23.82,5.67,25.05,17.15.75,7.05,1.06,38.42-.47,44.23-5.08,19.3-41.96,17.59-44.25-1.5-.78-6.46-.87-42.04.68-47.04,2.01-6.46,12.46-12.16,18.99-12.84Z"/>
</svg>