<?xml version="1.0" encoding="UTF-8"?>
<svg id="Layer_2" data-name="Layer 2" xmlns="http://www.w3.org/2000/svg" viewBox="0 0 55.16 59">
  <defs>
    <style>
      .cls-1 {
        fill: #10b981;
      }
    </style>
  </defs>
  <g id="Layer_1-2" data-name="Layer 1">
    <g>
      <path class="cls-1" d="M40.43,28.71v3.72c3.08-.12,6.01.05,8.72,1.61,8.67,5,5.2,15.75,5.92,23.99.03.62-.34.99-.96.96H2.89c-1.31.04-2.73-.89-2.88-2.25v-25.41c.06-1.28,1.37-2.61,2.63-2.75l20.98.07c.06.03.26.23.26.25v3.46c0,.41,1.32.07,1.6.06,1-.03,2.02.03,3.02,0v-3.79c0-.11-1.27-1.35-1.52-1.69-1.51-2.09-2.1-4.4-2.46-6.91-.05-.36.06-.75-.03-1.12-.17-.7-1.34-2.26-1.67-3.33-3.62-11.47,14.78-21.4,20.33-11.61.47.83.68,1.96,1.08,2.64.19.33.69.65.95.98,2.16,2.77,1.43,6.4.36,9.46-.19.54-.75,1.44-.84,1.86-.13.63-.08,1.52-.19,2.24-.46,2.81-1.68,5.91-4.07,7.54ZM44.79,15.88c.58-2.48,1.23-5.32-.52-7.5-.26-.32-.96-.79-1.08-.97-.17-.26-.37-1.4-.56-1.88-4.15-10.2-23.06-.34-18.43,10.48.19.44.59,1.63.97.85.86-1.78,1-4.57,1.17-6.53,1.48-2.16,4.43-.18,6.39.36,2.63.72,4.76.66,7.27-.42.47-.2,1.22-.89,1.71-.74,1.44.45,2.71,4.72,2.72,6.15l.36.21ZM28.07,10.52c-1.1.1-.66,1.3-.74,2.09-.25,2.44-1.82,5.46-1.65,7.56.96,11.58,15.1,13.04,17.52,1.64.58-2.72.39-7.71-1.09-10.12-.79-1.29-.73-.69-1.83-.24-2.63,1.1-4.68,1.27-7.47.55-1.12-.29-3.86-1.56-4.76-1.47ZM39.27,29.74c-.95.25-1.69.76-2.69.97-1.51.31-3.11.28-4.59-.16-.85-.25-1.51-.76-2.34-.93v3.27c.71.48,4.46,4.82,4.81,4.82s.84-.85,1.09-1.1c.48-.5,3.72-3.45,3.72-3.72v-3.14ZM3.6,53.6v-23.67c0-.37-1.03-.05-1.24.04-1.04.44-1.23,1.23-1.32,2.27-.57,6.74.42,14.23,0,21.05-.02.99.6.38,1.11.32s.98.01,1.47-.01ZM4.75,32.43h17.9s.19-.18.19-.19v-2.31s-.18-.19-.19-.19H4.95s-.19.18-.19.19v2.5ZM4.75,53.6h17.9s.19-.18.19-.19v-19.63s-.18-.19-.19-.19H4.95s-.19.18-.19.19v19.82ZM25.8,33.71l5.07,7.44,2.75-2.5c-.75-.43-4.46-4.94-4.81-4.94h-3.02ZM42.99,33.71h-2.89c-.34,0-4.12,4.47-4.81,4.94l2.75,2.5,4.94-7.44ZM23.87,34.03v23.48s.18.19.19.19h6.8c.09,0,.17-.21.19-.32.82-4.52,1.02-9.39,1.78-13.95-.18-.31-.51-1.28-.84-1.37-.55-.14-.79,1.21-1.57.56l-5.93-8.76c-.17-.1-.56-.01-.62.17ZM53.9,57.71v-14.31c0-.39-.32-1.67-.45-2.12-1.14-3.91-4.9-7.23-9.02-7.41l-5.97,8.79c-.68.56-1.04-.69-1.75-.6l-.62,1.37c.72,4.56.95,9.43,1.77,13.95.02.11.1.32.19.32h7.76c-.07-.16.13-.38.13-.45v-13.47c0-.27,1.03-.27,1.03,0v13.73s.18.19.19.19h6.74ZM34.36,39.63c-.1.03-1.46,1.36-1.47,1.46,0,.09.79,1.5.87,1.54.17.1,1.13.11,1.33.04s.89-1.48.84-1.69-1.3-1.43-1.56-1.36ZM36.7,57.71c-.45-4.57-1.12-9.16-1.79-13.67l-1.04-.06-1.8,13.73h4.62ZM22.85,54.89H2.12s-.5.27-.57.33c-.85.75-.24,2.49.7,2.49h20.59v-2.82Z"/>
      <path class="cls-1" d="M9.07,37.84c.41-.13.83.1.82.55v10.41c-.12.92-1.05.83-1.17,0,.29-3.25-.36-7.1,0-10.27.03-.23.09-.6.34-.69Z"/>
      <path class="cls-1" d="M13.38,49.34c-.15-.15-.15-.46-.16-.67-.28-3.28.23-6.95,0-10.28.11-.82,1.05-.85,1.16.13.36,3.14-.28,6.93,0,10.14.06.51-.61,1.07-1,.67Z"/>
      <path class="cls-1" d="M17.71,38.14c.14-.49,1.03-.31,1.03,0v11.04c0,.34-1.03.34-1.03,0v-11.04Z"/>
    </g>
  </g>
</svg>