<?xml version="1.0" encoding="UTF-8"?>
<svg id="Layer_2" data-name="Layer 2" xmlns="http://www.w3.org/2000/svg" viewBox="0 0 57.96 59">
  <defs>
    <style>
      .cls-1 {
        fill: #10b981;
      }
    </style>
  </defs>
  <g id="Layer_1-2" data-name="Layer 1">
    <g>
      <path class="cls-1" d="M4.03,1.44v33.57h4.37l.26.94c-.04.12-.11.17-.22.22-.35.15-4.24.17-4.72.06-.38-.09-1.07-.79-1.07-1.15V4.21h-1.39v34.61l.21.21h8.18l.36.62-.36.62H.91l-.75-.64L0,4l.36-.75c.6-.61,1.51-.4,2.28-.43-.09-1.22-.03-2.51,1.45-2.64,6.86.45,14.46-.58,21.24,0,2.48.21,4.17,2.23,4.37,4.65.47,5.74-.36,12.1,0,17.9l-.1.45c-.19.44-.86.44-1.15.1V4.56c0-1.28-1.84-3.12-3.12-3.12H4.03Z"/>
      <path class="cls-1" d="M32.67,1.44c-.56.08-1.27.52-1.82.7-.55.03-.75-.51-.54-.97.24-.51,1.67-.92,2.22-.97h21.77c1.21.3,1.08,1.63,1.05,2.63.99,0,2.22-.22,2.61.93l-.08,35.79-.54.57-16.53.06-.22-.22.26-.94h15.68l.21-.21V4.21h-1.39v31.56c0,.06-.16.31-.23.36h-14.38c-.36-.35-.23-.81.11-1.12h13.04l.21-.21V1.64l-.21-.21h-21.22Z"/>
      <path class="cls-1" d="M16.24,15.52c.42-2.5,3.83-3.46,5.64-1.68.33.33,1.02,1.53,1.02,1.96v9.09c.48-.15.78-.47,1.33-.54,1.7-.23,2.75.32,3.73,1.65,1.76-1.85,4.56-1.17,5.55,1.11,2.41-1.86,5.37-.44,5.62,2.56-.32,5.09.41,10.65,0,15.69-.08.97-.3,1.89-1.11,2.49-.55.41-1.54.63-1.54-.28,0-.56.42-.45.7-.7.5-.43.63-.86.7-1.52.49-4.85-.36-10.47,0-15.4.13-2.14-2.65-3.33-3.84-1.47-.45.7-.19,2.3-1.45,1.59-.3-1.15.16-2.25-.77-3.22-1-1.05-2.93-.65-3.42.72-.24.69-.14,2.08-1.33.98.48-2.15-2.15-4.13-3.71-2.27-.68.81-.17,2.39-1.54,1.82-.17-.13-.17-.3-.2-.49-.45-3.43.4-7.88,0-11.38-.28-2.51-3.67-2.78-4.15-.26l-.14,19.01c-.26.32-.85.27-1.05-.09-1.05-1.79-1.72-3.92-2.78-5.69-.95-1.59-2.02-2.08-3.83-1.3l2.47,9.73c1.3,2.8,3.46,8.17,6.52,9.29.7.26,1.82.04,1.29,1.23-1.98.75-4.03-1.36-5.12-2.81-3.91-5.2-4.89-11.1-6.49-17.24v-.42c.81-1.76,3.6-1.73,5.01-.69,1.49,1.1,1.65,2.91,2.53,4.26.09.13-.02.25.31.18v-15.88Z"/>
      <path class="cls-1" d="M18.87,58.52c-.13.49-1.13.83-1.25-.13-.19-1.44-.17-6.17,0-7.64.06-.53.25-.71.7-.96h19.98c.63.26.77.73.83,1.37.15,1.57.19,5.71-.02,7.21-.02.16-.06.33-.16.46-.3.3-1.08.12-1.08-.17v-7.7h-19v7.56Z"/>
      <path class="cls-1" d="M32.98,17.56l17.45-.03c.74.03,1.2.72.54,1.24h-18.29s-.15-.96-.15-.96l.45-.24Z"/>
      <path class="cls-1" d="M32.64,22.77c-.61-.53-.06-1.15.72-1.22,5.43-.48,11.57.38,17.07,0,1.14.1,1.15,1.29,0,1.39-5.5-.33-11.48.42-16.93,0-.2-.02-.74-.07-.86-.18Z"/>
      <path class="cls-1" d="M33.12,13.54l17.31-.04c1.08.02,1.07,1.37,0,1.39h-17.21c-1,0-1.11-1.27-.1-1.36Z"/>
      <path class="cls-1" d="M7.46,9.52c5.51.27,11.58-.48,17.03-.04.31.03.61.07.9.21.39.6.09,1.18-.62,1.18H7.56c-1,0-1.11-1.27-.1-1.36Z"/>
      <path class="cls-1" d="M33.12,9.52c5.51.27,11.58-.48,17.03-.04.31.03.61.07.9.21.39.6.09,1.18-.62,1.18h-17.21c-1,0-1.11-1.27-.1-1.36Z"/>
      <path class="cls-1" d="M7.01,5.6h18.31l.18.87-.25.31H7.08c-.36-.18-.41-.93-.07-1.18Z"/>
      <path class="cls-1" d="M32.81,5.6h18.17c.34.25.29,1-.07,1.18l-18.14-.03c-.52-.24-.38-.86.04-1.15Z"/>
      <path class="cls-1" d="M7.32,13.54c.72-.17,5.94-.15,6.76-.02,1,.16.99,1.25-.13,1.38-1.22.14-5.35.17-6.51-.01-.65-.1-.78-.5-.57-1.1.12-.13.28-.21.45-.24Z"/>
      <path class="cls-1" d="M7.32,17.56c.72-.17,5.94-.15,6.76-.02,1,.16.99,1.25-.13,1.38-1.22.14-5.35.17-6.51-.01-.65-.1-.78-.5-.57-1.1.12-.13.28-.21.45-.24Z"/>
      <path class="cls-1" d="M7.32,21.58c.72-.17,5.94-.15,6.76-.02,1,.16.99,1.25-.13,1.38-1.22.14-5.35.17-6.51-.01-.65-.1-.78-.5-.57-1.1.12-.13.28-.21.45-.24Z"/>
    </g>
  </g>
</svg>