<?xml version="1.0" encoding="UTF-8"?>
<svg id="Layer_2" data-name="Layer 2" xmlns="http://www.w3.org/2000/svg" viewBox="0 0 58.87 59">
  <defs>
    <style>
      .cls-1 {
        fill: #10b981;
      }
    </style>
  </defs>
  <g id="Layer_1-2" data-name="Layer 1">
    <g>
      <path class="cls-1" d="M47.55,0v2.83h11.32v56.17H11.33v-9.2c-.25-.05-.35.13-.5.28-1.73,1.79-3.13,3.97-4.88,5.74-3.64,3.68-7.95-.59-4.96-4.25l10.74-9.93c-.51-1.09-1.16-2.08-1.55-3.23-1.33-3.92-.74-6.74.77-10.41.07-.18.36-.46.36-.49V2.83h11.32V.21s.2-.21.21-.21h24.69ZM46.28,1.13h-22.21v8.06h22.21V1.13ZM22.65,4.24h-10.05v21.36c1.28-1.24,2.71-2.27,4.24-3.18v-8.56h11.04v8.77c9,4.13,9.91,16.39,1.83,22.13-.59.41-1.31.63-1.83,1.14v8.63s-.2.21-.21.21h-10.82v-8.84c0-.12-1.38-.76-1.61-.91-.33.38-2.64,2.83-2.64,3.03v9.83h44.99V4.24h-10.19v6.37h-24.55s-.21-.2-.21-.21v-6.15ZM26.47,15.14h-8.35v6.79c2.66-.94,5.69-.96,8.35,0v-6.79ZM20.78,22.68c-7.39.75-11.78,9.07-9.09,15.8.48,1.2,1.27,2.19,1.89,3.31L1.71,52.85c-1.35,1.84.67,3.84,2.55,2.7l10.83-12.39c6.1,5,15.86,2.38,18.32-5.16,2.75-8.44-3.93-16.2-12.63-15.31ZM26.47,46.41c-2.78.69-5.61.9-8.35-.14v6.86s.2.21.21.21h7.92s.21-.2.21-.21v-6.72Z"/>
      <path class="cls-1" d="M50.81,16.55v1.41h-20.3c-.31,0-.2-1.15-.21-1.41h20.52Z"/>
      <rect class="cls-1" x="30.29" y="46.41" width="20.52" height="1.27"/>
      <path class="cls-1" d="M47.84,22.07h-17.54c.04-.34-.13-1.17.13-1.35l17.06-.06c.6.11.28.95.35,1.42Z"/>
      <rect class="cls-1" x="30.29" y="50.51" width="17.54" height="1.27"/>
      <path class="cls-1" d="M50.81,32.97h-13.58v-1.41h13.37c.31,0,.2,1.15.21,1.41Z"/>
      <path class="cls-1" d="M47.7,35.65v1.41h-9.27c-.31,0-.31-1.41,0-1.41h9.27Z"/>
      <path class="cls-1" d="M27.89,28.86v10.82s-.2.21-.21.21h-10.82v-11.04h11.04ZM26.47,30.14h-8.35v8.35h8.35v-8.35Z"/>
      <path class="cls-1" d="M24.44,31.99c.25-.04.81.75,1.04.91l-4.1,4.11c-.11.09-.17.06-.28,0-.5-.25-1.19-1.44-1.84-1.71-.05-.19.71-.92.92-.92.43,0,.62.91,1.2.65s2.69-2.97,3.06-3.04Z"/>
    </g>
  </g>
</svg>