<?xml version="1.0" encoding="UTF-8"?>
<svg id="Layer_2" data-name="Layer 2" xmlns="http://www.w3.org/2000/svg" viewBox="0 0 244.37 149.71">
  <defs>
    <style>
      .cls-1 {
        fill: #6ecd9c;
      }
    </style>
  </defs>
  <g id="Layer_1-2" data-name="Layer 1">
    <g>
      <path class="cls-1" d="M49.74,149.1c-3.02-2.03-2.11-7.57-2.37-11.53-.04-3.42-.09-7.25-.14-10.68-.05-2.8-.04-5.43-.19-8.08-.18-4.59-1.53-5.59-4.51-7.38C20.39,100.43,1.55,87.06.1,57.46-3.72-12.09,106.24-24.7,111.81,54.16c1.98,28.82-9.13,59.47-29.02,80.16-7.17,7.14-15.55,12.42-24.95,14.6-2.54.54-5.69,1.34-7.99.24l-.12-.06ZM66.12,125.2c1.48.33,4.22-2.47,5.64-3.88,28.09-27.97,38.81-97.23-11.2-105.27C28.15,11.86,6.49,48.22,21.69,76.05c7.45,13.24,23.37,17.17,37.16,22.52,3.7,1.73,4.47,5.93,4.69,9.66.37,4.77.45,11.24,1.05,14.41.24,1.01.46,2.17,1.44,2.54l.09.02Z"/>
      <path class="cls-1" d="M182.07,149.1c-3.02-2.03-2.11-7.57-2.37-11.53-.04-3.42-.09-7.25-.14-10.68-.05-2.8-.04-5.43-.19-8.08-.18-4.59-1.53-5.59-4.51-7.38-22.15-11-40.98-24.37-42.44-53.96-3.82-69.55,106.14-82.16,111.71-3.3,1.98,28.82-9.13,59.47-29.02,80.16-7.17,7.14-15.55,12.42-24.95,14.6-2.54.54-5.69,1.34-7.99.24l-.12-.06ZM198.45,125.2c1.48.33,4.22-2.47,5.64-3.88,28.09-27.97,38.81-97.23-11.2-105.27-32.42-4.2-54.07,32.17-38.87,60,7.45,13.24,23.37,17.17,37.16,22.52,3.7,1.73,4.47,5.93,4.69,9.66.37,4.77.45,11.24,1.05,14.41.24,1.01.46,2.17,1.44,2.54l.09.02Z"/>
    </g>
  </g>
</svg>