<?xml version="1.0" encoding="UTF-8"?>
<svg id="Layer_1" data-name="Layer 1" xmlns="http://www.w3.org/2000/svg" viewBox="0 0 250 250">
  <defs>
    <style>
      .cls-1 {
        fill: #f6f6f6;
      }
    </style>
  </defs>
  <path class="cls-1" d="M110.24,25.76c105.92-11.91,156.6,119.68,73.31,180.4-53.2,38.78-130.76,15-152.92-46.54C9.73,101.55,47.55,32.81,110.24,25.76ZM177.75,71.55c-6.3-6.25-16.6-9.32-25.36-10.07-14.5-1.24-54.25-1.58-66.91,2.5-14.2,4.58-22.42,16.62-23.77,31.35-1.33,14.48-1.64,48.9.2,62.92,1.78,13.53,13.8,27.23,27.56,29.13,14.73,2.03,49.01,1.37,64.49.21,17.32-1.3,31.29-11.3,33.66-29.34,1.89-14.43,1.32-46.28.2-61.35-.69-9.35-3.28-18.61-10.08-25.35Z"/>
  <path class="cls-1" d="M169.89,77.84c5.55,5.14,7.84,13.28,8.48,20.65,1.1,12.68,1.7,46.39-.15,58.23-1.18,7.53-8.19,16.56-15.34,19.3-9.13,3.5-55.59,3.2-67.22,2.04-15.69-1.56-23.11-10.59-24.49-25.9-1.11-12.31-1.41-55.47,2.45-65.4,3.16-8.15,10.21-13.47,18.8-14.27,15.13-1.41,51.53-1.75,66.26.03,3.95.48,8.38,2.69,11.22,5.32ZM153.5,95.79c4.57,4.47,15.32.21,11.46-7.48-5-9.95-17.81,1.26-11.46,7.48ZM116.48,91.84c-26.56,4.55-34.17,44.4-12.09,60.15,30.53,21.77,67.49-11.65,49.58-44.86-7.23-13.41-23.21-17.73-37.5-15.29Z"/>
  <path class="cls-1" d="M122.76,101.26c29.67-2.61,35.8,44.26,4.36,46.9s-33.78-44.31-4.36-46.9Z"/>
</svg>