<?xml version="1.0" encoding="UTF-8"?>
<svg id="Layer_1" data-name="Layer 1" xmlns="http://www.w3.org/2000/svg" viewBox="0 0 250 250">
  <defs>
    <style>
      .cls-1 {
        fill: #f6f6f6;
      }
    </style>
  </defs>
  <path class="cls-1" d="M195.61,196.57c-64.78,64.92-180.25,10.54-169.89-81.46,2.47-24.93,14.6-47.81,32.99-64.25,27.08-24.39,65.96-32.88,101.14-19.63,67.52,23.69,87.55,115.07,35.99,165.11l-.23.23ZM153.64,65.63c-.21-.56-.72-.64-1.31-.64-3.86,0-16.7,0-19.5,0-1.4-.1-.87.5-.97,1.67,0,20.1,0,87.78,0,91.59-.15,1.32-.66,2.28-2.09,4.02-4.57,4.67-10.72,8.49-17.27,8.16-24.65-.26-24.34-37.46.46-38.05,1.29-.09,3.96.29,4.5-.52.16-.21.23-.5.25-.87.01-3.52.05-14.26-.02-17.48-.34-1.91-2.61-1.31-4.36-1.45-58.78,1.28-49.01,89.63,9.57,78.14,14.82-3.56,29.68-19.5,30.89-35.03.22-5.23,0-16.42.08-30.12.02-8.03-.03-15.12.02-16.94.23-.8,1.66.11,2.39.34,8.23,3.6,15.61,8.08,24.97,7.1,1.01-.15,1.79-.18,2.26-.96.58-2.85.05-8.33.24-13.22-.04-2.18.12-3.94-.13-4.77-.31-1.01-2.01-.97-3.07-1.15-15.15-1.72-27.1-14.49-26.87-29.68l-.05-.16Z"/>
</svg>