<?xml version="1.0" encoding="UTF-8"?>
<svg id="Layer_1" data-name="Layer 1" xmlns="http://www.w3.org/2000/svg" viewBox="0 0 250 250">
  <defs>
    <style>
      .cls-1 {
        fill: #f6f6f6;
      }
    </style>
  </defs>
  <path class="cls-1" d="M195.6,53.53c49.08,48.59,34.39,132.83-27.93,161.9C93.61,249.98,11.98,185.78,26.84,106.03,41.31,28.33,139.21-2.29,195.6,53.53ZM79.5,67.41c-21.02,2.71-8.2,38.01,9.89,22.6,10.1-8.61,1.54-24.07-9.89-22.6ZM92.43,178.7v-71.5c-5.44-4.81-15.02-1.38-22-2.36v75.43l22-1.57ZM106.58,104.84v75.43c6.25-2.51,14.22-2.5,20.43,0v-43.21c0-5.47,9.18-13.03,14.95-13.45s16.48,4.74,16.48,10.31v44.79h22v-51.07c0-8.6-10.19-20.12-18.75-22.11-13.29-3.09-23.98.14-33.88,8.77l-.79-9.45h-20.44Z"/>
</svg>