<?xml version="1.0" encoding="UTF-8"?>
<svg id="Layer_1" data-name="Layer 1" xmlns="http://www.w3.org/2000/svg" viewBox="0 0 250 250">
  <defs>
    <style>
      .cls-1 {
        fill: #f6f6f6;
      }
    </style>
  </defs>
  <path class="cls-1" d="M54.17,196.41C2.63,146.46,22.59,54.89,90.16,31.22c35.16-13.24,74.15-4.73,101.25,19.65,23.53,20.76,36.46,52.67,32.95,84.29-7.62,82.84-112.02,119.74-169.95,61.48l-.23-.23ZM107.25,83.31c-1.25,7.6.36,16.24.11,24.14-.08,1.65-.03,3.66-1.54,4.61-2.23,1.31-8.14,1.54-11.49,1.56-3.34.27-7.7-1.43-9.88.57-.82.91-.9,2.33-.86,4.56,0,4.23,0,9.32,0,13.65,0,.6,0,1.16,0,1.66,0,2.99-.08,3.29,2.41,3.27,5.74.01,12.65,0,18.23,0,3.3,0,2.91-.02,2.94,1.89,0,8.9,0,52.73,0,58.52.02.53.07.8.71.88,5.42.14,14.56.02,20.13.06,2.16-.17,4.64.53,4.31-1.05.2-6.98-.37-54.16.21-60.03,4.46-.73,12.2-.09,17.19-.34,3,.01,2.99-.15,3.34-3.01.77-5.97,1.66-12.97,2.41-18.8.1-1.21.43-2.02.06-2.86-.27-.32-.75-.32-1.22-.34-2.92.05-12.95.48-17.47.62-2.25.11-3.12-.77-3.7-3.2-4.41-19.39,1.9-29.8,21.88-27.83,1.93-.01,2.48-1.14,2.45-2.75-.01-3.89.07-11.67-.04-14.92,0-2.58-2.95-2.26-4.88-2.33-9.5-.3-18.15-2.69-27.05.52-8.62,3-15.77,12.13-18.2,20.7l-.05.26Z"/>
</svg>