<?xml version="1.0" encoding="UTF-8"?>
<svg id="Layer_2" xmlns="http://www.w3.org/2000/svg" version="1.1" viewBox="0 0 843.64 168.25">
  <!-- Generator: Adobe Illustrator 29.7.1, SVG Export Plug-In . SVG Version: 2.1.1 Build 8)  -->
  <defs>
    <style>
      .st0 {
        fill: #00ff9e;
      }

      .st1 {
        fill: #20ffaa;
      }

      .st2 {
        fill: #f3f3f3;
      }
    </style>
  </defs>
  <g id="Layer_1-2">
    <g>
      <path class="st2" d="M66.75,35.5h-.25c.25-.25,1.25,0,1.5-.75-.5-.5-2.5.25-5.75-.75-.75,0-1.75.25-3.25.5-2.75.75-12.5,3.25-22.25,5.5,0,.25.25.5.75.5h-.25c-.75,0-.75-.25-1.5-.25s-1.25.25-1.5.5h1.25l-.25.5-.75-.25c-.5-.25-.75-.25-1-.25h-.25l.25.5c-3.75.5-7.75.75-11.75.75h-1.25l-.25-.25c-10-.5-16.25-2.25-18.5-5.5h.75l-1.25-.5c-.75-.5-1.25-1-1.25-1.75,1,0,3.25.25,4.25.25s2-.25,3.25-.5L79.25,13l11.25-1.5c1.25-.25.75-2,1.75-2.25.75-2.25,1.25-4.25,1.25-6.25,0-.5-.25-.75-.75-.75C94,1,93,0,95.25,0,97.75,0,101.25,1,105.75,3c4.75,2,7.75,3,9.5,3,3,0,9.25-.5,19-1.5s18.25-1.25,25.5-1c2.75,0,6.75.25,12.25.75,5.5.25,9.75.5,12.5.5.75,0,2-.5,2.75-.5,2.25,0,5.25,1.25,9,3.5s6,4.5,6.25,6.75c.25,1.25-1.5,3.25-5,5.5-3.25,2.25-5.5,3.5-6.75,3.5v.5c-8,2.75-14.75,2.75-20.25.5l-.5.25h-6.5c-.25.25-.75.25-1,.25s-.5,0-.75-.25h-.5l-.25.5c-1.5,0-2.5-.25-2.75-.5l.5-.25h-.5c-.5,0-.75.25-.75.5l.25.25v.25h-.25l-2.75-.25-.75-.5-.5.5c-1.25,0-5.75.5-7.75.25l.25.25c-.75,0-1.75.5-2.5.5h-.25l-2.25-1.25h-.25l-.25.5v.25l.25.25v.5c-.75,0-1-1.25-2-1.25h-.5c.25.25.5.5.5,1,0,.25-.25.5-1,.5h-.5l-.5-.25-1,.5c-.25-.25-.75-.25-2-.25h-1.5l-.5.25c-.5,0-.75-.25-.75-1h1.25l-.5-.5-21.75,2.25-.25,7.5c-1.5,6.75-3,12.75-4.75,17.75-.5.5-1,2-1.5,4.25l-.25-.25v-.25c0-1.75,1.5-5.75,1.5-7.5-1.25,2.5-2,5-2.25,7.5l-.75.25c.25,1-.25,1.5-.25,2.25l.25.25v.5c0,1.25-.25,2.5-.75,4,0,.25-.25.25-.75.25h-.5c.25-.75.5-1,1-1v-.5l-.25-.5.25-.25-.25-.25.25-.5v-.75l-.25-.75c0-.75.75-2,.75-2.25v-.25l-.25-.25.75-2v-4c-.17-.17-.25-.33-.25-.5v-.25l1-1v-2.75l-.75-.75c0-.25,1-.25,1-.5.5-3.5.75-5.5.75-5.75-1,0-1,4.25-1.75,4.5l-1.5,5.75c-.75,3.25-1.25,5.75-1.25,7.25v.25l.25.5c-.5-.25-1.25,2-2.25,6.5-1,4.25-1.5,7-1.5,8.25.25,1,.25,1.5.5,1.75-.25.25-.5.75-.5,1.25l.25.25.5,1c-.25.5-.5.75-.75.75s-.5,0-.5-.25c-1,1.5-1.5,4.25-1.5,8,0,.25,0,.5.25,1-.25.25-.25.5-.25.75l-.5-.25c-.5.5-1.25,2.75-2,6.5s-1.25,7-1.5,9.75c0,4-1.25,10.75-3.75,20.25-2.5,9.25-4.75,15.75-6.75,19-.75,5.25-1,9.5-1,13.25v2.75c0,.75,1,2.25,1,3.25v.25l-1.5,2.25-.25.25h-1c-7.25,0-10.75-9.75-10.75-29,0-5.25.5-12,1.25-20.25,1-3.75,1.75-13,2.5-16.75l15-66c-2,0-3,.5-3,1.25-1.5-.75-2-.5-3.5.5-.25,0-.75-1-1.5-1v1h-.75l-4.75.5h.25c-.5.25-.75.25-.75.25-.25,0-.5,0-.75.25,0,.25-.5.25-.5,0-1,.25-1.75.5-2.25.5Z"/>
      <path class="st2" d="M149.25,72.5v-.25c2-4,4.5-11.25,7.75-21.75-.5-4.5.5-3.75,3.25-7,.75.25,2-.5,2.25-.5h.25l.25.25v.25l-.25.25c.25.25.5.5,1,.5v-1c-.17-.17-.25-.33-.25-.5,4,0,6.25.25,7,.5l-.25.25c5-.25,7.5,1.25,7.5,4.75,0,1.5-.5,4.5-1.75,8.75-1,4.25-1.25,7-1,8.75l-.5-.25c.5,3.25,0,7.5-1.25,12.5s-2.75,10.5-5,16.5-3.5,10-4,12c-1.75,2-2.5,9.25-3.75,11.25l-4.5,14.75c-.25,1.25-.25,2-.25,2.5v.5c0,2,1.5,8,1.5,10.25,0,4.25-2.25,12.75-6.25,12.75-5.25,0-8.75-2.5-10-7.75s-1.25-7.25-1.25-14v-1.75c0-6.25,1.25-18,3.75-34.75.25-.25.25-.5.25-1.25l1.75-8.5v-.5h-.25c-.5.75-.75,1-.75,1.25-.25.25-.5.5-.75.25l-2.5,4-18.75,35.75c-2.25,4-5.75,6-10.25,6-7.75,0-11.5-4.75-11.5-14.25,0-6.25,1.75-15.25,2.75-19,.5-2,1.5-5.5,3.25-10.5l3-9c-.25-.75-.25-1.25.5-1.5l2.25-7c.25-1.75.75-2.75,1-3l4.25-11.5c5-8.25,7.5-14.25,7.5-18v-.5c0-.25,0-.5-.25-1l.5-.5h.25l.25.25c.25-.25.75-.5,2-.5,2,0,6,.5,11.75,1.75,1,.5,1.5,1,1.5,1.5-1.25,1.75-2.25,3.25-2.75,4.5l-6.25,21.75-.25.5-2,7-.5,1.25c0,.25.25.25.25.5h.25c6-1.75,11.25-2.75,15.75-3l.5-.5,2-2.5c.17-.17.17-.25,0-.25l.75-1.25h.25ZM120,107c-3.25,4.75-4.75,11.75-4.75,20.75v1.75c0,.25.25.25.25.5h.25l2.5-2.5,7.5-10.75,14-26h-.5c-1,0-4,.25-5.25.25-1.75,0-5.75-.5-7-.5h-1l-.5.75-5.5,15.75Z"/>
      <path class="st2" d="M251.24,56.25c.25,0,.5-.5.25-.75h.25c.17,0,.25-.08.25-.25,1.75,1.25,2.5,3.75,2.5,7.25v.25l-.25.5v.25l.25.25v.25l-.25,1.5v.5c0,.25.25.25.25.5,0,5.75-6.25,15.5-11.25,19.25-7.75,10.75-16,19.25-24.5,25.5l-3.75,2.75c0,1.25,3.5,2.5,4.75,3.25l33,18.25c.25.25,2.25.75,4,1l1,.25c-2.25,3.5-5.75,5.25-10,5.25s-8.25-.75-14-3.5l-6.5-3-7-4-5.25-3.25c-6-2.75-11-4-14.75-4-1.25,0-2.75.25-4,.75-.25,1-1.75,1.5-4.5,1.5-.25,0-.75-.25-1.25-.75h-.25c-.5,0-1.25,2-2.5,5.75s-1.75,6.25-1.75,7.25c1,0,3-1.75,3.75-1.75l.25.25v.25l-5,7.25c-1.25,1.75-2.75,2.75-4.5,2.75-6,0-8.25-9-8.25-16,0-6.25,1.25-13.25,3.5-21,2.25-8,4.25-14,6-17.75l9-19.75c.25,0,.5-.5.25-.75-.25-.75-1.5-2.25-4.25-5v-.5h1.5l7.5-6.25c-.75-1.25,3.25-3,4.5-3,12.25-8.25,23-12.5,32.5-12.5,5.75,0,9.75,1.25,12,3.75-.75,0,.25,1,.25.25,0,.17.08.25.25.25l.5.5c.75.25,1.75,1.25,1.75,1.5l-.25.5h.25l.25-.25c0,.25.5.5,1.5,1v.75h.25l.5-.25.5,1h-.5c0,.17.08.33.25.5.25,0,.5,0,.5.25l-.25.25c.25.25.75.5,1,.5h-.25c-.25,0-.25.25-.25.5v-.25c-.25,0-.25.75,0,.75v-.25h.25ZM237.24,59.5l-.5-.25v.25l-3.25.75h-.5c-.25,0-1.5-.25-1.75-.25h-.25c0,.25.25.5.5.5-1.75.75-3,1-3.25,1l.25.25h-.75l.25.25h-.75l.25.25h-.25c-.25,0-.75-.25-1-.75v.25c0,.25.25.5.5.75l-10.25,4c-3,1.25-7,4-8,6.75l-11,30.5h.5c.75,0,5.25-3,13-9.25,19-14.25,28.5-26,28.5-35h-1.75c1-.5-1-.5,0,0h-.5Z"/>
      <path class="st2" d="M275.49,85v1l-.25-.5-.25.25-1.25,2.5-2.5,5-1,2.5h-.25v1c-.75,0-1.75,1.5-3,4.25-1,2.75-1.5,4.5-1.5,5.75,0,.25.25.5.5.5-.75-1.25,2.75-5.75,2.5-6.75l.5.25c.5-1,.75-1.75.75-2h.25c0-.75.75-2.5,2.5-5v.75l-8.75,18.75-.25.75c-.25.5-.25.75-.25,1v.25l-.5-.25c.75,1.25-3.25,6.75-3.25,8.5.25,0,2.25-3,2.5-4l.25.5c0,3.25-1.5,10-4.25,10v-1.25l-1.25,1.25.25.25h-.5l-.75.25c-4,0-6.75-6.75-6.75-11h.5c0-2.25.75-10.25,2.5-24.5,6.25-16.75,9.75-25.25,10.5-25.25h.25l.75.25h.25l2.25-.75.25.5h1.25c1.25,0,2,0,2.75-.25.25.75.75,1,2,1h.5l-1.25-.5h.25c1,0,1.75.5,2.5.5v-.25c.25.25,3,.25,3.25,1h-1.5v.5c0,.25,3,.5,3,1.75l-.25.25v.5l-.25.5h1l.25-.25h.25c.17.17.25.33.25.5v.25l-.25.75-3.75,7.75v1.25h-.5c1,.5-1,.5,0,0h-.25ZM279.24,28c4.25,0,9.5,3.5,11.5,7.5l.25.75v4.75c0,1.25-1,2-2.75,2-6,0-9-5-9-15Z"/>
      <path class="st2" d="M294.24,41.5c-.75-4.25,1.75-7,6-7h.25l7.25,1.75c2,1,3,2,3,3.25,0,.25,0,.5-.25,1l-.25.75c-.25.75-.75,4.75-1.75,11.5l-3,19.75c-1,6.25-1.5,9.25-1.75,9.25h-.25v.5l-.5,1.75v.25l.25.25v.25c-.25,0-.5,0-.5.25,0,.75-.25,3.25-1,7.25,0,.25-.5,3.5-1.25,9.25s-1.25,8.75-1.5,8.75h-.25c0,2.75-1,9.25-1,12h-.5c0,2.25-.25,3.5-.5,3.75l.25.5c0,.25-.5,1-.5,1.75l.25.25c.17.17.25.33.25.5h-.75v.5h.5v3c-.25-.25-.75-.5-.75.5.75,0,.25.75,1,.75l-.25.25-.25.75v1-1.5c-.25.25-.25.75-.25,1.75l.5,1.25v-.25c.25.25.25.5.25.75h-.25v4.5c.5,0,1-.5,1.5-1.5l19-41.75,17-32c6.75-12.25,13.75-19.75,21.25-23l-.25-.25c.25-.25,1.25-.25,3-.25s3,.5,3.25,1.75l-3.5,5c-5,6.75-11.25,15-11.5,15.75l-11.25,25.25c-4.25,14.25-7.25,23.25-8.75,27.5l-.5,2-10.75,23-6.75,11.25c-3.25,5.5-7.25,8.5-12.25,9v.25l-.5-.25-.25.25c-9,1-12.75-6.75-15-12.5-.75-1.5-1.25-4-1.5-7.75s-.25-6-.25-7v-7c0-9.25,1.25-21.25,3.5-35.5l.25-1,1.75-10.75,10-41.25Z"/>
      <path class="st2" d="M343.74,119.25v-.25c-.17,0-.25.08-.25.25l-1.5-5.25v-6c2.75-5.25,4.5-10.75,5.5-16.75,6.25-13.75,13.75-24.25,22.25-31.25.25,0,.5,0,1-.25h1.25c0,.5-.75.75-2,.75.25.25.75.5,1.25.5.25,0,2.25-1.25,3.25-1.25l.25.25c0,.75-.25.75-1,.5l.25.5h4v-.5c5.25,0,9.5,1.75,12.75,5h-.75c0,.25.75.25.75,0,2.75,2.75,4,5.75,4,9.5.5,6.75-11.75,33.25-16,30.25l.25.25v.5c-5.25,5.5-10,8.25-14.75,8.25-.75,0-1.5-.25-2.5-.5.75-.75-.25-1.25-.25-.25l-1.5-.75v-.5c-.25,0-.25.5,0,.5-.25,0-1-.25-1.25-.5,1-.5-1-.5,0,0h-.25l-.5-.25c.25,0,.25-.5,0-.5-.17.17-.25.33-.25.5h-.25c-.75,0-1.25,2.5-1.25,7.75,0,3.25.5,5,1.5,5,4.75,0,9.75-1.75,15.5-5.5,3-1.75,5.25-3.25,7-4.5l7-5.5,5.25-4c1.5-2,4.5-4.5,9-7.5,4.75-3.25,7.75-5.75,9.5-7.5h.25c0,1.5-2,4.5-6.25,9.25-4,4.5-5.75,7.5-5,9.25-3.5,4-5.5,7-5.75,8.75-3.25,4.5-6.5,8.25-9.5,11l-1.75,1.5h-.75c0,1-2.5,2.5-3.5,2.5l.25-.25c.75-.75,1.25-1,1.75-1l-.25-.25-.25-.25c-1,0-2.25.75-3.75,2.25h1c-.25.75-1,1.25-2,1.25h-.5l.5-.25h-.75c0,.5,0,.75-.25.75l-.25-.5h-.25c-1.25.75-2.5,1-3.25,1l.25.5c-1.25,0-3.25.5-5,.5l.25.25h-.5c-.25,0-3.25-.25-3.5-.25,0-.25-.25-.5-.5-.75-.25.25-.5.25-.5.5h-.25c-.25,0-.5-.25-.5-1,.17.17.33.25.5.25h.25c0-.25-.25-.5-.75-.5h-.5l-.25.25c-1,0-3.5-1.25-3.5-2l-2.25-.75c1,.5-1,.5,0,0-.75-.25-1.5-.5-2.5-1.25v-.5c-.25,0-.25.25-.25.5-2.75-1.5-5-4.25-7-8.25,0-.75-.25-1.75-.75-3.5h.25ZM368.74,84.25l-4.5,7c-.25.75-1,2.75-2.75,5.75-1.5,3-2.25,5.25-2.25,6.75l.25.25c.75-.75,2.5-1.5,3.5-2.5,8.5-8.75,13.75-15.5,15.75-20l.5.25c-.25-.25-.25-.5-.25-1.25,0-2.25,2.5-6.25.5-6.25-.75,0-1.5.5-2.75,1.75l-8,8.25Z"/>
      <path class="st2" d="M450.48,11.75c1-.25,1.75-.5,2.5-.5v-.5c.5-.25.75-.25,1-.25h.25c2.5,0,3.75.5,3.75,1.25h.75c.5,0,.75,0,1-.25.25.25.25.5.5.5h.25c-.25-.25-.25-.5-.25-.75,1.25,0,2,.5,2,1.25h.5l.25-.25h.25l.25.25h.25c.25,0,1-.5,1.75-.5h.5c0,.25-1,0-1,.75,1,0,1.75-.75,2.5-.75,0,1.25,2.25,1.75,2.25,2-.25.25-.25.5-.5.5v.25c.75-.75,2-.75,2,.25l-.5-.25c-.25,0-.5.25-.5,1v.25c.5,0,.75-.25,1-.5l.25.5c.25-.25.5-.25.75-.25,0,.75-.5,1-1.25,1v.75l.25-.25c0,.25.25.5.75.5.17-.17.25-.33.25-.5.25,0,.25.5,0,.5h.25c0-.75.25-1.5.5-1.75l.25-.25h.25c.25.25.5.5.5.75-.75,1-1,1.75-1,2l1.75-1h.25l-.25.5c2.25-.25,3.5-.25,3.75.5l.25-.25c.75,0,1.5.5,1.75,1.5l1-.25-1-.5.25-.25c.75,0,1.25.5,1.25,1.25h1.25l-.75-.75c.25,0,1.25,1,3.5,3.25l-1-.5v.75c-.75-1.25-1.5-2-2-2.25,0,.5,0,1,.25,1.25l.25-.75c.25.25.25.5.25,1,0,.25-.25,1-.25,1.25v.25l.5-.5.5.25.5.25v-.25l.25.25c0,.25.25.75.5,1v.75-.5c.75,2,1.25,3.25,1.25,3.5l-.25.25-.75-1.25c-.75-1.25-1.75-2.25-2.5-2l-.5.25c0-.5-.25-.5-1-.25,0,.75.75,1,2.5,1l-.25.25c0,.17-.08.25-.25.25h1v.5c2.75,2.75,4,5,4,7v.5c-.5-1.5-1-2.25-1.25-2.25v.25l-.5-.25-.5.25v.75c-.75,0,.25,1.5.25.5.25.25.75.5,1,.5l-.25.25v.25l.25.25-.25.5h-.25c-1.25-.5-1.75-.75-1.75-1l.5-.5c0-.5,0-.75-.25-1l-1.25-1.5v2.25c-.25,0-.5.25-.75.5.25,0,.75.25,1,.5l-.25.25h-.25l-.5-.25v.25c0,.25.25.5.75.5-.25.25-.5.5-.5,1.25v.5l.75.25-.75.25c-.25.25-.25,1.75-.25,4.5v1.5l.25.5c-.17-.17-.33-.25-.5-.25h-.25c.25,0,.5.25.5,1v.25c0,4-.25,6.25-1,6.5l.5.25-1,5.25v-.75l-.5,1c0,.75.5,1.25.5,2,0,3.5-.5,5.25-1.25,5.25l-.5-.5v.25l.25.5.25.75c0,.25.25.75.25,1.5-.25,0-.5,0-.75-.25,0,.75.5,2.5.5,2.75,0,1.5-.25,2.5-1,3l.25.5.5.75h-.75l.25.25c0,.75,0,1-.25,1v-.75l-.25.5v.25l.25.5v.5c-.17.17-.25.33-.25.5l-.25.25.25.5v.5c0,.25-.5,1.75-.75,1.75v.25c.25.25.5.5.75.5l-.25.25-.25.25c.17,0,.25.08.25.25,1,0,1.75.25,2,.5h.5c7,.5,13.25,1.5,18.75,3.25l.25.25v.25l-.25.25.5.25c.17,0,.25.08.25.25h.5c-.25-.25-.5-.5-.5-1h.75l9.25,3.5v.5h.5l.25-.25c.5,0,2,.75,4.25,2.25h-.25c0-.25-.25-.25-1-.5l-.75-.25h-.5l-.25.25v.5c.25.25.5.25.75.25.25-.25.5-.25.75.75v-.75c.25.25.75.5,1,1.25l.25-.25c.5.5.75,1,.75,1.25,0,.5-.25.75-.75.75h-.25l-.75-.25h-.25l.25.25h-.75c0,.17.08.33.25.5.25,0,.5,0,.5.25h-1.5v.5c-3,0-11.25-1.75-15-1.5l-.25-.25c-3,0-7.5-.25-9.75-.25h-.25l-1,.25-.5-.25c-.75-.25-1-.25-1.25-.25l-1,.25.5.25-.25.25h-2.25l-1.5.5c0-.17-.08-.17-.25,0-2.5,1-3.75,1.75-4,2.5l-.5-.75-.5-1-.25.5c0,.25-.5.75-.75.75l-.25-.25c-.75.25-1.5,2.25-1.75,6.25-.25,0-.25.5,0,.5-.25,2-.25,4.25-.25,7l.5,1.25h.25v.25h-.25l-.5-.25c.25.75,0,1.25-.25,1.25v2.25c-.25.5-.25,1-.25,1.5l.25.5v.25c-.5,2.75-.75,5.5-.75,8.5l-.5-.75v1.25h.5v2.5l.25,1.75v1.5l-.25,1,.25.25c0,.25-1,2-.5,3.25.25.25.25.5.25.75l-.25.25c-.25.25-.5.25-.5.5,0,.5.25.75.75.75-.25,2,.25,1.75.25,2.5v.25l-.25.25c-.17.17-.33.25-.5.25l-.25-.5c-.17,0-.25.08-.25.25,0,.25.25,2.25.75,6s.75,5.5,1,5.5h.25c0,.75-.25,1.5-.75,2,0,.25.75.75.75,1-.17.17-.25.33-.25.5l-.25.25c.25,0,0,2,.75,2.25v-1.5c.25,0,.25.25.25,1,.25.5.5.75.75.75l-.25.5.25.25h.25c0,.25.25.5.75,1.25l.5,1.25c-.17.17-.33.25-.5.25v-.75l-.5,1.75.25.25c0,.25-1.5,2-1.75,2l.25.5-.5-.25v.25l.25.5c-.25-.25-.5-.25-1-.25,0,.5,0,.75-.25.75v-.25l-.75-.25v.75c-.25-.25-.25-.75-.25-1.75-.5.25-.75.5-.75,1l-.25-.25-.5.25v-.75l-.5.25c-3.5-2.75-4.25-7.5-5.25-13-.25-1.75-.5-6.5-.5-7.75v-6.5c0-14.5,1-29.25,2.75-44.25,0-1-.75-.75-1-1h-5l.25.25h-7.5v.25c-.75.25-1.5.25-1.75.25h-2l-.25.5-7.75.75c-1.25,0-4,6.25-4.75,6.5v-.75,1.25l-.5-.25c.25.5-.5,1.75-1.75,3.75,0,.25-.25.75-.5,1-4.5,8-6.75,12-7,12l-.25.25-8.5,17.75-1.75,4.25-.25-.25c-.25,0-.25.5,0,.5l-.75,2.5-.25.25v.75l-.25.25v.75c-1,3.25-1.5,5.75-1.75,7.25.25.25,0,.5-.25.75,0,0-.25.25-.25.5l.25.5-.5-.25h-.25c-.5,0-1,.75-1.5,2l-.25-.25c-.25,0-.25.5,0,.5l-1.25,2c.25-.25.25-.75.25-1.25-.5,0-.75.5-.75,1.25h-.25c0,.25,0,.5-.25,1l-.25.75-.5.5c-.75,0-1.25-.5-1.25-1.25,0,.25-.25.25-.25.5v.25l.25.25-.5.5h-.25l.25-.5-.5-.5c0,.25,0,.5-.25.75-.75-.25-.5-1.5-.75-1.75,0,.25-.25.75-.5,1-.25-.25-.5-.25-.5-.5v1c-.75,0-1.25-.25-1.75-1,.25.5,0,1-.25,1.25l-.25-.5c0,.25-.25.5-.5.5s-.5-.25-1.25-.25c0,.25.75.5.75.75-.75,0-2.25-.25-2.5-.25v-.75c-.25,0-.75.75-1,.75-.17-.17-.33-.25-.5-.25l-.25-.25h-.25l-.25.25c-3,0-6.5-4-6.5-6.75v-.25l1.5,2.25.25.25.25.5h.25l-.25-.75.5.25c-.25-.75-.5-1.25-1.25-1.25-1-2-1.5-3.75-1.5-5.25.25,0,.5.5.5,1.75l.5.25v-1h.5c-.25-.25-.5-.5-.5-.75s.25-.5.5-.75l-.75-.5v-.75c0-3,1-8.25,2.75-15.5,1-.25,1.5-2,1.5-4.75,0-.17-.08-.33-.25-.5v-.75l.5.5c-.75-3.25,4.5-13,4.5-14.5,1-1.75,1.5-3.75,1.5-6.5h-.25c0-.25.25-.5.5-1.25h.75c0-.25.75-2.25.75-3.25h-.25v-.5l.75-2.25h.5v-.5l.5,1.25c.25-1,3-5.75,3-7.75v-.25l-.75-.75-.25.25c.25,0,.25.5,0,.5-.5,0-.5-.25-.25-.5s.25-.25.25-.5l-1.25-1.25h-.25l-.75-1c-.25.25-1-.25-1-1v.75c-.25-.25-.5-2.5-1.25-2.75v.5c-.25-1-.75-1.75-1.5-2.25v.25c0,.75.5,1.5,1.75,2.75h-.25c-.75,0-1.5-1.25-2.25-3.75.5.25.75.25.75-.25,0-.25.25-.5.5-.5l1.5.75v-.25h.25c-1-.75,1-.75,0,0,1.25.25,2.5.5,3.25.5h.5c-1-.5-2-.75-3-.75,0-.25.25-.5.75-.5,1,0,2,.25,3,.75,0-.25,0-.5.25-.5v.5c1.25.5,2.75.75,4,.75h.25c2.25-4.25,3.5-6.5,4.25-6.5-1,.75,1,.75,0,0,0-2.75,4.25-8.25,4.25-10.5h-.25v-.25h.5c0-.75.75-1.75.5-2.5l.75.25v-.75c.17,0,.33-.08.5-.25l-.25-.25c.17-.17.33-.25.5-.25,0-1.25,1.25-4.5,2.25-4.5,0-2.25.5-3.25,1.75-3.25,0-1.75,1.5-5,4.5-10l4.75-8,12-20c.5-.75.75-1.5.5-2.75l.75.25v-1l.25.5c0-.25.25-.25.5-.25,0-1.25.75-2.25,2.25-3,0,.17.08.25.25.25.17-.17.17-.25,0-.25h0ZM462.48,56.75l.25.5v.25l-.5,1-.5.5v.25l-6.25,11.75-1.25,3.25-.25-.75c-1,.75-2,4.25-3,5l-.25-.5-.25.5c0,.25.25.25.25.5v.25c-.17.17-.25.33-.25.5l-1.25,2,.5.25c.75.75,2-.25,2-1.25l.25.5.5.5c10,0,15-.25,15-.75l3.5-35.25v-3.5h-.25c0,1.75-1.25,4.5-4,8.5-2.5,4-3.75,6-3.75,6.25l-.5-.25Z"/>
      <path class="st2" d="M522.73,42.75h.25l-.25.25h2l-.75.75,1,.25c-.25-.5,0-.75.75-.75.25,0,1.5,1.5,2.25,1.75l-1-1,8,3.75,1.75,1.5c.25,1.25.25,2.25.25,3v.75c0,3.5-1.75,8.75-5.5,15.5s-5.5,11.75-5.5,14.75h-.25c0,1.25-1,3.5-3,7l.25.5c0,.75-1.75,3-1.5,4l-.75-.25v1c0,.75.25,1.25.5,1.5-.25,0-.5,0-.75-.25l-.25.25v.25l.25.75-.5-.25c-.5.5-.25,3.5-2,3l.5.75.25.5h-.75c.25,0,.5.25.5.75h-.5c0,3.25-1.25,8-4,14.75s-4,11.75-4,15.5c0,4.25.5,6.5,1.5,6.5.75,0,2.5-.5,5.25-1.75l16.5-8c.75-1.25,4.5-3.5,11.75-6.75s11.5-5.5,12.75-6.25h.5l-15.75,17.25-13,11.25c-.75.25-1.5,2.5-2.5,2.5-.5.25-.75.25-.5.5l.25.5c-1.25,2-9.25,5.25-12.5,5.25-.75,0-2.25-.25-4.5-.5h2.75c-1.25-.5-3.25-.75-6.25-.75,0-.25.25-.5.5-.5l-1-.25.5.5-3-1.25h-.25v-.25c-8.5-4.25-12.75-9.75-12.75-17v-9.75l.25-.5v-.5c0-.25.5-4.25.75-4.5s.75-2.5,1.5-6.75l7-20.75c.75-1.25,2.5-6,5.5-14.25l12.75-26.75c1.25-1.25,2-2.75,2-4.25,0-.25-.25-1-.25-1.25,0-1.25,1-2,3-2Z"/>
      <path class="st2" d="M573.23,85v1l-.25-.5-.25.25-1.25,2.5-2.5,5-1,2.5h-.25v1c-.75,0-1.75,1.5-3,4.25-1,2.75-1.5,4.5-1.5,5.75,0,.25.25.5.5.5-.75-1.25,2.75-5.75,2.5-6.75l.5.25c.5-1,.75-1.75.75-2h.25c0-.75.75-2.5,2.5-5v.75l-8.75,18.75-.25.75c-.25.5-.25.75-.25,1v.25l-.5-.25c.75,1.25-3.25,6.75-3.25,8.5.25,0,2.25-3,2.5-4l.25.5c0,3.25-1.5,10-4.25,10v-1.25l-1.25,1.25.25.25h-.5l-.75.25c-4,0-6.75-6.75-6.75-11h.5c0-2.25.75-10.25,2.5-24.5,6.25-16.75,9.75-25.25,10.5-25.25h.25l.75.25h.25l2.25-.75.25.5h1.25c1.25,0,2,0,2.75-.25.25.75.75,1,2,1h.5l-1.25-.5h.25c1,0,1.75.5,2.5.5v-.25c.25.25,3,.25,3.25,1h-1.5v.5c0,.25,3,.5,3,1.75l-.25.25v.5l-.25.5h1l.25-.25h.25c.17.17.25.33.25.5v.25l-.25.75-3.75,7.75v1.25h-.5c1,.5-1,.5,0,0h-.25ZM576.98,28c4.25,0,9.5,3.5,11.5,7.5l.25.75v4.75c0,1.25-1,2-2.75,2-6,0-9-5-9-15Z"/>
      <path class="st2" d="M591.98,41.5c-.75-4.25,1.75-7,6-7h.25l7.25,1.75c2,1,3,2,3,3.25,0,.25,0,.5-.25,1l-.25.75c-.25.75-.75,4.75-1.75,11.5l-3,19.75c-1,6.25-1.5,9.25-1.75,9.25h-.25v.5l-.5,1.75v.25l.25.25v.25c-.25,0-.5,0-.5.25,0,.75-.25,3.25-1,7.25,0,.25-.5,3.5-1.25,9.25s-1.25,8.75-1.5,8.75h-.25c0,2.75-1,9.25-1,12h-.5c0,2.25-.25,3.5-.5,3.75l.25.5c0,.25-.5,1-.5,1.75l.25.25c.17.17.25.33.25.5h-.75v.5h.5v3c-.25-.25-.75-.5-.75.5.75,0,.25.75,1,.75l-.25.25-.25.75v1-1.5c-.25.25-.25.75-.25,1.75l.5,1.25v-.25c.25.25.25.5.25.75h-.25v4.5c.5,0,1-.5,1.5-1.5l19-41.75,17-32c6.75-12.25,13.75-19.75,21.25-23l-.25-.25c.25-.25,1.25-.25,3-.25s3,.5,3.25,1.75l-3.5,5c-5,6.75-11.25,15-11.5,15.75l-11.25,25.25c-4.25,14.25-7.25,23.25-8.75,27.5l-.5,2-10.75,23-6.75,11.25c-3.25,5.5-7.25,8.5-12.25,9v.25l-.5-.25-.25.25c-9,1-12.75-6.75-15-12.5-.75-1.5-1.25-4-1.5-7.75s-.25-6-.25-7v-7c0-9.25,1.25-21.25,3.5-35.5l.25-1,1.75-10.75,10-41.25Z"/>
      <path class="st2" d="M641.47,119.25v-.25c-.17,0-.25.08-.25.25l-1.5-5.25v-6c2.75-5.25,4.5-10.75,5.5-16.75,6.25-13.75,13.75-24.25,22.25-31.25.25,0,.5,0,1-.25h1.25c0,.5-.75.75-2,.75.25.25.75.5,1.25.5.25,0,2.25-1.25,3.25-1.25l.25.25c0,.75-.25.75-1,.5l.25.5h4v-.5c5.25,0,9.5,1.75,12.75,5h-.75c0,.25.75.25.75,0,2.75,2.75,4,5.75,4,9.5.5,6.75-11.75,33.25-16,30.25l.25.25v.5c-5.25,5.5-10,8.25-14.75,8.25-.75,0-1.5-.25-2.5-.5.75-.75-.25-1.25-.25-.25l-1.5-.75v-.5c-.25,0-.25.5,0,.5-.25,0-1-.25-1.25-.5,1-.5-1-.5,0,0h-.25l-.5-.25c.25,0,.25-.5,0-.5-.17.17-.25.33-.25.5h-.25c-.75,0-1.25,2.5-1.25,7.75,0,3.25.5,5,1.5,5,4.75,0,9.75-1.75,15.5-5.5,3-1.75,5.25-3.25,7-4.5l7-5.5,5.25-4c1.5-2,4.5-4.5,9-7.5,4.75-3.25,7.75-5.75,9.5-7.5h.25c0,1.5-2,4.5-6.25,9.25-4,4.5-5.75,7.5-5,9.25-3.5,4-5.5,7-5.75,8.75-3.25,4.5-6.5,8.25-9.5,11l-1.75,1.5h-.75c0,1-2.5,2.5-3.5,2.5l.25-.25c.75-.75,1.25-1,1.75-1l-.25-.25-.25-.25c-1,0-2.25.75-3.75,2.25h1c-.25.75-1,1.25-2,1.25h-.5l.5-.25h-.75c0,.5,0,.75-.25.75l-.25-.5h-.25c-1.25.75-2.5,1-3.25,1l.25.5c-1.25,0-3.25.5-5,.5l.25.25h-.5c-.25,0-3.25-.25-3.5-.25,0-.25-.25-.5-.5-.75-.25.25-.5.25-.5.5h-.25c-.25,0-.5-.25-.5-1,.17.17.33.25.5.25h.25c0-.25-.25-.5-.75-.5h-.5l-.25.25c-1,0-3.5-1.25-3.5-2l-2.25-.75c1,.5-1,.5,0,0-.75-.25-1.5-.5-2.5-1.25v-.5c-.25,0-.25.25-.25.5-2.75-1.5-5-4.25-7-8.25,0-.75-.25-1.75-.75-3.5h.25ZM666.47,84.25l-4.5,7c-.25.75-1,2.75-2.75,5.75-1.5,3-2.25,5.25-2.25,6.75l.25.25c.75-.75,2.5-1.5,3.5-2.5,8.5-8.75,13.75-15.5,15.75-20l.5.25c-.25-.25-.25-.5-.25-1.25,0-2.25,2.5-6.25.5-6.25-.75,0-1.5.5-2.75,1.75l-8,8.25Z"/>
    </g>
    <g>
      <circle class="st0" cx="778.65" cy="81.89" r="61.36"/>
      <g>
        <path class="st1" d="M735.59,125.59c-.24-.23-.28-.26-.33-.31.69.66.31.29.33.31Z"/>
        <polygon class="st1" points="742.74 131.67 742.6 131.57 743.74 132.36 742.74 131.67"/>
        <path class="st1" d="M750.19,136.33c-.71-.44-2.8-1.52-4.1-2.41l-.22-.14-.6-.37c.81.5,1.72,1.11,2.61,1.61s1.72.97,2.31,1.3h0Z"/>
        <path class="st1" d="M754.37,138.45c-.26-.14.93.41-1-.46.09.04.12.06.18.09.17.08.41.19.82.37h0Z"/>
        <path class="st1" d="M753.56,138.08c-.85-.38.55.26,0,0h0Z"/>
        <path class="st1" d="M757.51,139.75l-1.14-.43c.23.11,1.24.51.86.37,1.17.46.94.35.28.06Z"/>
        <path class="st1" d="M758.61,140.12c-.2-.06-.4-.13-.6-.21.1.05.25.12.6.21Z"/>
        <path class="st1" d="M756.75,139.43l1.26.48c-.16-.07-.17-.1-.58-.22.11.02-.15-.06-.68-.26Z"/>
        <path class="st1" d="M756.05,139.14c-.64-.25-1.44-.63-.31-.16-2.14-.94-1.85-.75.31.16Z"/>
        <path class="st1" d="M750.6,136.51c-.27-.14-.54-.27-.81-.43l-.69-.38c.34.2,1.54.86,1.5.81Z"/>
        <path class="st1" d="M764.76,142.11c.08,0-.39-.15-.47-.2-.3-.06-.59-.14-.88-.22.44.16,1.3.37,1.35.42Z"/>
        <path class="st1" d="M764.29,141.91l1.32.28c-1.18-.29-1.39-.32-1.32-.28Z"/>
        <path class="st1" d="M758.84,140.12c-.71-.2-1.39-.49-2.09-.74.83.31,1.65.63,2.5.87l-.41-.14h0Z"/>
        <path class="st1" d="M769.83,143.21l-.77-.08c.45.07.91.11,1.37.14l-.6-.06Z"/>
        <path class="st1" d="M773.25,143.69c-.57,0,.77.19.17.16.94.09,1.74.13,2.46.13-.77-.03-1.58-.14-2.63-.3h0Z"/>
        <path class="st1" d="M777.09,143.98c-.38,0-.78,0-1.21,0,.41,0,.81,0,1.21,0Z"/>
        <path class="st1" d="M767.87,142.7c.1.03.29.11,1.04.27l-.51-.17c-.16-.03-.34-.07-.52-.1h0Z"/>
        <path class="st1" d="M768.38,142.79h.02c.57.12.96.19,1.13.23-.15-.03-.49-.1-1.15-.23Z"/>
        <path class="st1" d="M767.74,142.67s.08.02.13.03c-.05-.02-.08-.02-.13-.03Z"/>
        <path class="st1" d="M762.2,141.23c.77.19,2.37.61.84.13-.56-.12.32.16-.84-.13Z"/>
        <path class="st1" d="M767.1,142.46c-.47-.09-.93-.22-1.4-.33.02.02.27.11-.12.03.5.1,1.01.22,1.51.3h.01Z"/>
        <polygon class="st1" points="767.8 142.57 767.1 142.46 767.63 142.57 767.8 142.57"/>
        <path class="st1" d="M774.62,143.7c.62.03,1.3.08,2.07.1-.83-.05-1.68-.14-2.48-.22-.12.02-.47.04.41.12Z"/>
        <path class="st1" d="M771.57,143.32s.1,0,.14.02c-.08-.02-.15-.03-.14-.02Z"/>
        <polygon class="st1" points="784.3 143.79 784.17 143.77 784.15 143.8 784.3 143.79"/>
        <path class="st1" d="M774.08,143.55c-.62-.08-.99-.09-1.34-.09.46.04.95.08,1.48.12.05,0,.06-.02-.14-.03h0Z"/>
        <path class="st1" d="M779.21,144.02c-.32-.02-.69-.05-1.08-.1.32.06.96.13,1.08.1Z"/>
        <path class="st1" d="M771.92,143.39h-.09c.2.05.18.04.09,0Z"/>
        <path class="st1" d="M771.92,143.39c.32.03.57.05.82.06-.37-.04-.72-.08-1.02-.12.07.02.15.04.2.05h0Z"/>
        <path class="st1" d="M786.47,142.6c-.09.14-1.68.52-3.09.44-1.36.2-.45.53.79.73.04-.07.04-.08,1.45-.31-.51,0-3.17.05-1.98-.14,1.87-.19,1.54-.1,2.46-.1-.79-.08,2.35-.53,1.89-.79-.53.14-1.07.22-1.61.32-.04-.04.55-.18.09-.16h0Z"/>
        <path class="st1" d="M781.45,143.87h-.59c.67.05,1.15.07,2.05.13.98-.1,1.18-.16,1.24-.2-.97.03-1.93.09-2.9.09l.2-.02h0Z"/>
        <path class="st1" d="M778.22,143.86c.46-.07,1.87-.16,1-.28-1.72,0-1.2.07-2.23.08,2.78.1-.8.02,1.21.18-.55-.02-1.04-.03-1.5-.05.5.04.98.09,1.44.13-.02,0-.04,0-.06,0h-.01c-.12-.02-.16-.03-.02-.02h.06s.07-.03.13-.04c.81.06.13.04-.13.04,0,0-.03,0-.03.02h.01c.93.04,1.86-.02,2.79-.03-.59,0-1.33,0-2.64-.03h-.02Z"/>
        <path class="st1" d="M764.5,141.61c.08.02.08.03.08.03.18.03.24.04-.08-.03Z"/>
        <path class="st1" d="M765.6,141.9c-.2-.04-.37-.05-1-.2-.55-.14,0-.03-.02-.05-.39-.06-1.35-.28-.16.04l.19.04c1.08.26,2.46.66,2.27.63-.31-.13-.58-.24-1.29-.45h0Z"/>
        <path class="st1" d="M771.93,143.12c.76.1,1.53.14,2.3.18l-1.16-.18.05.05c-1.3-.15-1.02-.08-1.19-.06h0Z"/>
        <path class="st1" d="M784.57,143.86l-.3.17c.44-.08.88-.21,1.32-.32l-1.03.15h.01Z"/>
        <path class="st1" d="M787.59,143.57l-.09.16c.26-.05.52-.13.78-.19l-.69.03Z"/>
        <path class="st1" d="M792.77,26.77l-.65.03c.3.02.5,0,.65-.03Z"/>
        <path class="st1" d="M797.08,28.18l.23-.32c-.27.13-.4.24-.23.32Z"/>
        <path class="st1" d="M842.14,96.85c.81-.88,2.01-1.86,1.28-1.87l-.75.18c-.06.74-.27,1.27-.53,1.69Z"/>
        <path class="st1" d="M829.56,48c-.02.12-.04.25-.05.38.37.04.72.08,1.04.11-.3-.15-.62-.33-.99-.49Z"/>
        <path class="st1" d="M826.22,49.44l-.25-1.32c0,.34.07.77.25,1.32Z"/>
        <path class="st1" d="M768.21,25.99c-.2.26-.4.51-.59.79,1.12-.16.56-.43.59-.79Z"/>
        <path class="st1" d="M816.63,132.63c.8-.39,1.42-.75,1.93-1.09-1.01.44-1.89.68-1.93,1.09Z"/>
        <path class="st1" d="M796.9,18.92c-.47.03-.7.15-.73.33.47-.02.77-.11.73-.33Z"/>
        <path class="st1" d="M820.57,129.98c-.15.07-.28.14-.43.22-.47.44-.93.91-1.59,1.34.74-.33,1.51-.82,2.02-1.56Z"/>
        <path class="st1" d="M718.79,93.53c.01.07.02.15.03.22.01.02,0-.08-.03-.22Z"/>
        <path class="st1" d="M729.86,119.11c-.17-.22-.45-.58-.71-.91.13.17.34.44.71.91Z"/>
        <path class="st1" d="M799.6,141.17c-.62.2-.09.06,0,0h0Z"/>
        <path class="st1" d="M796.32,141.19c.12-.06.21-.12.21-.18-.03.07-.11.12-.21.18Z"/>
        <path class="st1" d="M823.44,123.7s.02-.02.04-.04c-.19.08-.16.06-.04.04Z"/>
        <path class="st1" d="M798.63,141.34c.24-.04.52-.09.82-.16-.13.02-.39.07-.82.16Z"/>
        <path class="st1" d="M798.79,141.41c-.22.05-.39.09-.55.13-.07.06.01.06.55-.13Z"/>
        <path class="st1" d="M800.46,140.87c-.35.12-.68.22-1.01.31.13-.02.18-.03.15,0,.18-.06.43-.15.85-.3h.01Z"/>
        <path class="st1" d="M730.84,45.27s-.07.05-.11.08c-.27.58-.12.35.11-.08Z"/>
        <path class="st1" d="M836.41,79.73s.03.04.04.07c0-.03.02-.06.02-.09l-.06.02Z"/>
        <path class="st1" d="M835.66,77.64c1.04.83.99,1.38.81,2.07l2.17-.82c-.99-.44-1.98-.86-2.98-1.25Z"/>
        <path class="st1" d="M782.06,25.06l1.42.84c-1.85.95-3.04.42-1.76,1.53.16-1.16,1.58-1.13,2.98-.97.7.08,1.4.15,1.96.06.56-.07.98-.32,1.13-.92l.87.7c-.27-.08-.34.06-.6-.02,1.62,1.53,1.7-1.5,4.07-.58.8.4,1.27.95.64,1.07l2-.08c.52.21.26.59-.25.39.95.21,1.88.49,2.82.73l-.05.07c.52-.26,1.62-.48,2.16-.57.57.62-.45.12-.39.5.58,0,1.17,0,1.76.01.18.45-.11.69-.56.75-.46.08-1.08-.02-1.58-.27.24,1.49.59,1.45,1.21,1.38.6-.05,1.5-.14,2.63,1.23-.49-.12-1-.21-1.5-.32.27,1.74,1.51,1.78,2.54,3.37-.08-.6-1.92-3.65-.11-3.45.35.41.88.77,1.97.74-.43.84.46,1.09,1.48,1.61l-.7,1.05c1.23.28,1.46-.28,2.38-.38,1.1.85.81,1.81.6,2.69,1.65,1.42-.35-2.18,1.9-.88.62.72,1.25,1.17,1.99,1.56.75.38,1.65.65,2.73,1.1.7,1.18-.68.45-.56,1.03l1.54-.02c.2.2-.08.38-.22.46.98.36.91-.9,2.28-.09.63-.36.88.55,1.22,1.6.32,1.07.79,2.19,2.01,2.38.03.6-.73.35-1.01.79,2.48,1.27,2.03,1.15,4.47,2,.16.66.32,1.31.44,1.98,0-1.67,1.9-.93,3.59-.13.09-.67.18-1.26.17-1.61.68.57,1.37,1.16,2,1.78,0,.38-.52.39-1.18.32.18.09.36.18.5.24.09,1.03-.79,1-1.72.84.06-.4.12-.8.18-1.19-1-.09-2.03-.07-2.57.46.21.05.49.22.74.46-.26,0-.48,0-.54.14-.07.14.32.18.8.35l-.89,1.23.54-.19c.31,1.04.63,2.07.86,3.12.58.31,1.2.59,1.83.89.61.31,1.23.64,1.85,1.03,1.27.77,2.43,1.84,3.41,3.48-1.27-.5-1.6.43-2.73.82.41-.69-.02-1.29-.58-1.92-.55-.64-1.31-1.29-1.62-2.17.31.92-.3.98-.59.85.86.79,1.63,1.64,2.44,2.5-.93.31-.39.92-.47,1.86,1.57-1.31,2.11,1.84,3.06,2.98-.58.27-1.31.16-1.69-1.44-.81,2.14,2.92,1.54,2.22,3.65-.13-.39-.09-.63-.44-.69.4.38.65,1.16.71,1.8s-.1,1.13-.42.92l-.1-.39c.1.66.26,1.49.48,2.36.2.87.41,1.8.68,2.64.48,1.7,1.1,3.13,1.87,3.27-.19.04-1.86-.19-2.2-.31,1.87,1.4,3.71,2.94,5.37,4.63-1.3-.39-4.26,1.27-5.08-.92-.17.64-.29,1.41.16,2.75.18-.42,1.83-1.09,1.95-.48-1.43,1.64-.75,1.16-1.98,3.12.3-.64,2.2.19,2.07,1.25-.28-.19-1.9-.06-2.08-.45.6.89,1.17,1.82,1.68,2.76-.26-.69-1.56-.28-2.13.22.19-.11.13.44.04,1.1-.11.66-.28,1.43-.24,1.78l.57-1.01c-.66,2.81,2.05,3.32,1.26,6.24-.25-.45-1.93-1.38-2.48-.01.34.44,1.21,1.45,1.87,2.72.65,1.26,1.19,2.82.95,4.21l-.64.32c-.09.71-.18,1.44-.32,2.14-.26-.83-.71-2.35-1.15-3.87-.45-1.54-1-3.11-1.25-4.15-.67.93-.64.12-1.03,1.69-.58.4-.42-1.06-.33-1.51-.42,1.16-.82,2.32-1.31,3.45.48.09.48.85.46,1.62-.05.76-.15,1.51.24,1.6.25-1.4.33-2.83.45-4.22.98.13,1.88,3.24.56,5.73-.6.49-1.3-1.16-1.62-1.23.2.46-.46,2.61-.77,2.73l.04-1.25c-.46.6-.44,1.29-.5,1.99-.07.7-.27,1.38-1.04,1.99-.33.54-1.82,1.07-1.45,1.42,1.31-.37,4.05.97,4.27,1.95-.19.17-2.67,2.44-3.49,2.76-1.18.46-.52-2.29-1.54-1.89.16.16.07.79,0,1.04-.52.45-.4-.62-1.11.64.5.67-1.79,2.32.14.95-.68,1.26-1,1.14-2.02,2.45.71-.11.31,2.24-.57,3.44-.07-.19-.47-.11-.66-.07-.52.53-1,.98-1.44,1.4-.46.4-.9.75-1.33,1.11s-.85.71-1.3,1.08c-.46.36-.93.75-1.45,1.2-.29.05-1.4.78-1.14.21-.23.33-.39.72-1.04,1.25-1.58.62,1.42-1.24.06-.95.13.33-1.37,1.77-2.26,2.61.29.09.9-.27,1.49-.82.59-.55,1.2-1.24,1.6-1.7.47.56-.66,2.57-2.98,4.41-1.87,1.41-1.09.18-1.38.48-.95.54-1.58.99-2.06,1.39-.49.37-.82.68-1.14.98-.63.59-1.22,1.1-2.99,1.67-1.46.29-.36-.6-.77-.7.81-.48,1.49-.74,2.1-.96.6-.25,1.15-.44,1.71-.75l-1.47.6c.47-.4,1.51-1.09,2.16-1.33-.31.07-.86.32-1.56.68-.35.19-.74.39-1.16.61-.43.21-.88.43-1.35.66-.93.48-1.95.93-2.93,1.32-.97.42-1.93.74-2.72.98-.51.31-1.44.77-.95.71l.98-.41c1-.1-1.76,1-.46.65-.64.34-1.34.63-2.11.94-.39.15-.8.3-1.23.44-.44.12-.91.22-1.41.32l-.44-.19c.06.07,1.32-.15,1.84-.38-.79.31-3.07.42-3.89.93.47-.04.95-.05,1.42-.11-1.36.45-3.06,1.09-4.86,1.22.85.13.4-.08,1.72.03-1.16-.16,4.53-.82,2.69-.9,1.36.06,2.25-.32,4.01-.45-.08-.09-.65-.03.83-.39.06-.05.2-.13.29-.18.05,0,.06,0,.1-.02-.03,0-.05,0-.08,0,.06-.03.06-.04-.03,0-.36.05-.66.08-.79.06.32-.22,1.06-.49,1.8-.78.73-.3,1.48-.6,1.84-.8.86-.24-.3.25.2.21.36-.19.71-.4,1.05-.62.21.2,2.4-.46.49.46l1.79-.68c1.11-.29,2.57-.85,3.39-1.37.85-.34,1.88-1.34,1.29-.76.88-.5,1.72-1.04,2.55-1.61l.07.06c1.32-.69,2.51-1.68,3.8-2.59,1.24-.99,2.58-1.91,4.15-2.72.36-.35.73-.71,1.17-1.11.43-.42.94-.87,1.61-1.38l.52.06c.46-.46,1.22-1.08,1.91-1.65s1.3-1.1,1.32-1.45c.88-.16,2.11-1.23,3.17-2.58.53-.67,1.09-1.37,1.56-2.04s.91-1.27,1.32-1.71l-.45-.41c.51-.61.89-1.3,1.31-2.01.41-.72.81-1.5,1.19-2.42l-.56-.18c.22-.84.89-1.7,1.58-2.7.36-.5.73-1.02,1.11-1.56.35-.55.68-1.14.95-1.76.14.26-.21.85-.55,1.23.66-.58,1.13-1.29,1.48-2.05.33-.77.51-1.61.68-2.43.19-.82.27-1.65.48-2.42.2-.77.51-1.47.97-2.1-.03-.76.2-1.24.52-1.69-.02.07-.02.13-.02.18.03-.07.06-.18.09-.29.21-.28.43-.57.63-.89-.24.26-.44.51-.58.74.15-.54.25-1.4.29-2.24l.83-.19c0-.07.02-.12.03-.19.48-.75-.2-.71-.86-.4-.02-.43-.1-.84-.23-1.16,1.34-.44.02-2.19,1.46-2.9-.29-.32-.26-1.38-.33-2.42-.12-1.05-.34-2.07-1.04-2.33.19-.02.3-.25.27.19.26-.9.45-1.81.07-2.64l1.07-.37c-.43-.68-.9-1.35-1.4-2,.64-1.21,1.02-1.76,1.85-.55-.63-1.47-.79-2.04-.94-2.58-.15-.53-.28-1.01-1.02-2.18l.72.05c-.12-.89-1.22-2.17-.69-2.78.54-1.07.24-3.55-.35-6.36-.64-2.81-1.55-5.93-1.87-8.6-.88.88-.84.23-.82-.59,0-.81,0-1.81-.85-1.55.37-.49.36-1.29,1.12-.7-.74-1.14-1.03-2.11-1.33-2.98-.3-.86-.71-1.56-1.81-2.01.33-.54.97.12,1.12-.28-.21-.14-.82-.52-.68-.93.15-.4.59.12,1,.39-.7-1.21-1.47-1.64-2.24-1.68s-1.52.29-2.24.62c-.04-.77-.17-1.29-.47-1.65-.31-.34-.79-.53-1.49-.63.16-.67.15-1.64,1.26-.38-.25-.39-.86-1.72-1.68-2.78-.8-1.07-1.66-1.95-2.19-1.57.06-.43-.78-1.05-1.05-1.14-1.29-1.65-1.39-1.81-2.87-3.23l.24.56c-1.64.48-1.43-.95-2.75-1.95l.14-.08c-.99-1.7-1.44-1.83-1.81-2.02-.4-.16-.69-.39-1.8-2.02l-.43.87c-.78.7-1.22-.03-1.77-1.03-.57-.97-1.28-2.21-2.39-2.5l.34.89c-.67-.06-.97-1.05-1.25-2.18-.28-1.12-.52-2.38-1.01-2.78-.15-.28.52-.05.91.03-2.24-2.61-.99.86-3.2-.03-.08-.79,1.32-1.23-.08-2.08-.24-.41-1.56-.46-2.96-.62-1.44-.11-2.92-.41-3.73-1.35.27.63.52,1.26-.64,1.24-1.57-.43-3.7-3.26-5.62-2.15-.17-.18-.21-.33-.19-.45-.68.04-1.72-.09-2.72-.07s-1.94.1-2.39.43c-.13-.82-.72-1.18-1.5-1.36-.78-.17-1.75-.14-2.69-.02-1.86.17-3.53.5-3.42-.85-1.31-.05-2.62,0-3.93.04l.11-.27c-2.52-.15-3.4.57-4.23,1.22-.58-.13-.18-.4-.14-.54-1.83-.09-2.85-.11-3.75.16-.9.26-1.72.67-3.1,1.57l-.44-.72c-.37.3-1.71.22-3.37.4-.84.06-1.75.2-2.65.46-.9.25-1.8.58-2.57,1.09,0-.09.04-.25.27-.44-1.78,1.05-4.17,1.44-6.19,2.1-2.02.62-3.61,1.49-3.71,2.89-.69.56-1.34,1.21-2,1.8,2.99-1.52.06,1.13,1.43.78-.53.37-1.34.63-1.86.69-.51.08-.73-.07-.07-.53l.28-.03c-.11-1.38-3.73,1.86-4.06,1.2-2.71,1.94-5.29,3.97-7.7,6.12-2.42,2.15-4.57,4.51-6.47,6.98.31-.06.61-.12.93-.16-.45.56-.88,1.14-1.32,1.7-.45.37-.84.32.09-.92-.76.44-1.28,2.28-1.18,2.4-1.85,2.38.08-1.39-.44-.63l-.65,1.09.21-.2c-.34,1.01-.24,1.18-1.19,2.77-.69.95-.59.34-.84.73-.03-.02-.13.1-.37.61-.45.79-.86,1.6-1.29,2.4l.85-.77c-.39,1.16-1.19,2.24-.22,1.35-.72.65-1.86,2.9-2.74,5.17-.46,1.13-.8,2.27-1.13,3.17-.3.91-.5,1.61-.62,1.86-.14.83-.32,1.64-.5,2.5-.19.85-.44,1.74-.63,2.74.15-.49.5-.71.1.99-.47-.75-.84,3.11-1.31,4.47.18-.62.07.63-.02,1.79-.08,1.16-.07,2.23.12,1.25-.12,1.46-.17.07-.33,1.18-.01,3.49-.11,7.69.58,11.95.04.06,0-.66.17.25.03.76.14,1.51.23,2.26.19.83.26.75.53,2.27-.03-.22-.07-.54.07,0,1.74,8.22,5.46,16.34,10.45,23.22-.66-.94-.22-.32.29.4-.33-.47.01,0-.05-.08.73.94,1.44,1.89,2.19,2.8.29.34.85.99,1.44,1.66.59.7,1.23,1.32,1.35,1.46l-.78-.82c.52.54.15.17-.31-.34-.36-.42-.7-.82-.92-1.08-.3-.35-.59-.69-.94-1.09-.32-.42-.69-.89-1.07-1.38-.78-.97-1.54-2.11-2.33-3.24-.34-.5.3.42.12.15-.42-.56-.85-1.29-1.67-2.61l.09.15c-1.12-1.88-1.87-3.26-2.56-4.74-.36-.73-.72-1.48-1.07-2.35-.36-.86-.78-1.82-1.17-2.98l.09.35c-.34-.98-.42-1.2-.58-1.68-.47-1.12,1.01,2.79.58,1.77-.1-.34-.32-.94-.58-1.67-.26-.73-.51-1.62-.78-2.48-.51-1.73-.91-3.43-.94-3.91-.32-1.59.02.48-.3-1.11l-.04-.43-.14-.39c-.21-1.04-.19-1.59-.17-1.64.04.25.12.72.16,1-.07-.69-.22-1.65-.35-2.49-.13-.85-.19-1.59-.21-1.82.04.52.07,1.04.12,1.55-.27-2.19-.48-4.64-.47-7.07v-1.81c.02-.6.05-1.19.07-1.78.02-1.17.13-2.3.17-3.36l-.1.32c.06-1.63.24-2.27.34-2.95.11-.68.29-1.39.6-3.15v.13c.02-.72.22-1.65.45-2.6-.1.9.62-1.59.47-.42.77-3.42.31-1.7.6-4.04l.35-.45c.11-.8-.01-.91.58-2.59-.37,1.42.72-.95.32.65.46-.82.79-1.56,1.06-2.22.28-.66.51-1.24.7-1.77.37-1.06.72-1.88,1.47-2.45.17-1.82-1.82,2.69-1.49,1.79-.26.32-.22-.05-.06-.63.19-.58.53-1.36.83-1.87.55-1.07,1.73-1.39,3.33-3.87-.17.24-.13.29-.3.53.81-.8.94-1.98,2.05-2.87.04-.9,1.08-1.39.68-1.95l-1.49,2.29c.78-1.33.99-2.99,2.93-4.76-.01.25-.35.95-.6,1.42.64-.45.78-1.21,1.47-1.65.19.3-.31.95-.93,1.74-.31.39-.66.81-.97,1.24-.29.44-.54.87-.68,1.27.68-.49,1.54-2.72,1.6-1.65.01-.73.5-1.28,1.07-1.88.6-.58,1.31-1.19,1.69-2.18l.24.39c.15-.28.47-.88.89-1.28l-.32,1.12c.79-1.46,2.53-1.84,3.5-3-1.21,1.04-1.44,1.07-1.53.9-.1-.17-.06-.53-.67-.17,2.52-3.16,2.54-.68,5.85-3.52-.43.4-1.97,1.13-1.39.37.72-.46,1.75-.94,2.35-1.01,2.31-1.75-.7-.18.11-1.16,1.2-.06,1.03-1.02,1.99-1.92l.33.47c3.04-1.43.09-1.49,2.94-2.66l-.67,1.35c.42-.32.82-.65,1.25-.96l.07.74c1.26-1.19,1.77-1.39,3.38-1.86-.56-.24-.33-1.12,1.02-1.77,1.09-.05-.27.77,1.64-.1-.27.57-.54,1.18-1.62,1.02,0,.23-.25.56-.24.78,1.16-.06,2.53-.9,3.22-1.19-.28.08-.61.17-.81.15.8-.66,1.63-1.28,2.48-1.89.54.09.25.41-.02.71.55-.25.83-.72,1.68-1.02-.04.61.2,1.13-.89,1.77.81-.5,1.66-.93,2.5-1.39.26.18,1.6.29,1.3.59.8,0,1.65-.47,2.57-.95.94-.43,1.95-.93,3.02-.82.08-.13.28-.27.7-.42.49-.03.97-.02,1.45,0,.48.04.96.08,1.44.1s.97-.01,1.48-.09c.51-.06,1.03-.2,1.59-.45.46.38.91.74,1.35,1.15,1.78-.25-1.84-1.51,1.17-1.94,2.15-.38.81,1.03,1.55,1.39.52-.27,1.25-.7,2.1-.93.85-.22,1.81-.17,2.74.42-.66.17-1.15-.06-1.76-.03v.05ZM803.44,30.46c-.47-.03-1.48.16-1.55-.47.89-.78,1.03-.16,1.55.47ZM829.84,51.89c-.43-.13-.58-.63-.58-1.32.29.32.52.74.58,1.32ZM806.17,138.45s.03-.02.04-.03c1.02-.32.66-.21-.04.03ZM804.1,139.18c-.19.12-.16.15-.05.16.11-.13.57-.31,1.1-.5-.18,0-.47.04-1.04.34h-.01ZM724.9,49.42l.3-.32c-.4.88-.34.6-.3.32Z"/>
        <path class="st1" d="M826.61,49.28c.06-.19.19-.32.32-.45-.23-.05-.39.05-.32.45Z"/>
        <path class="st1" d="M768.33,25.85h-.07s-.04.1-.04.14l.11-.14Z"/>
        <path class="st1" d="M826.96,115.78c.3-.31.52-.45.69-.52-.1-.1-.31,0-.69.52Z"/>
        <path class="st1" d="M793.12,142.89c.46-.09.91-.23,1.36-.35-.66.16-.91.17-1.25.2.04.04.32.07-.11.15h0Z"/>
        <path class="st1" d="M781.02,143.18c-.21,0-.42.02-.62.03l.06.06c.86-.02,1.45-.09.57-.1h-.01Z"/>
        <path class="st1" d="M791.69,142.44c-.15-.17-.97.11-1.93.27l.17-.03c-.24.28.77.05,1.76-.24Z"/>
        <path class="st1" d="M789.54,142.75c-.29.05-.59.1-.89.14-.1.11.36-.04.89-.14Z"/>
        <path class="st1" d="M801.56,140.31c-.46.09-.17.37-.46.37-.38.46,2.82-1.35.46-.37Z"/>
        <polygon class="st1" points="790.81 142.03 791.19 142.17 791.68 141.88 790.81 142.03"/>
        <path class="st1" d="M798.2,140.26l-1.49.4s-.14.12-.37.21c.91-.28,1.92-.54,1.86-.61Z"/>
        <path class="st1" d="M796.35,140.86c-.48.14-.93.25-1.19.36.26-.07.82-.22,1.19-.36Z"/>
        <path class="st1" d="M792.85,141.51l.45-.05,1.05-.27c-.5.1-1,.24-1.51.32h.01Z"/>
        <path class="st1" d="M813.12,133.1l1.32-1.05c.06-.21-.37-.02-.85.38-.27.31-.76.71-.47.67h0Z"/>
        <path class="st1" d="M808.27,134.88c.43-.16.49-.1.77-.12l-.18-.42-.59.54Z"/>
        <path class="st1" d="M812.29,132.2c.06-.21,1.7-1.74.04-.48-.05.22-1.35,1.26-.04.48Z"/>
        <polygon class="st1" points="830.04 114.8 829.83 115.16 830.91 115.79 830.04 114.8"/>
        <path class="st1" d="M834.52,93.6c-.7,1.74.89.65.11,2.2.28.52.64-1.27.87-.75-.17-1.21.15-1.74-.98-1.45Z"/>
        <path class="st1" d="M835.5,95.05c.03.19.06.4.12.63-.03-.35-.08-.52-.12-.63Z"/>
        <path class="st1" d="M732.85,122.72c.27.33.58.63.87.94l-.57-.6c-.11-.11-.2-.23-.3-.34Z"/>
        <path class="st1" d="M734.52,124.51l.21.22.53.56c-.2-.21-.56-.59-.74-.77h0Z"/>
        <path class="st1" d="M805.1,34.26l.22-.22c0-.38-.21-.53-.65-.85l.43,1.08h0Z"/>
        <polygon class="st1" points="791.07 27.54 791.32 27.63 791.07 26.44 791.07 27.54"/>
        <path class="st1" d="M777.96,27c.53.04,1.16-.14,1.69-.05-1.15.08-1.85-1.2-1.69.05Z"/>
      </g>
    </g>
    <g>
      <path d="M744.16,107.35l2.63,1.46.29,1.02.15,1.03.15.15-.15.29v.15h.15c.15.15.29.15.29.29,0,3.51-4.98,5.56-8.49,2.19-1.02-7.75,1.46-8.78,4.98-6.58Z"/>
      <path d="M757.47,83.94v-.29l1.32-3.22c1.02-2.49,3.36-6.44,7.02-11.56,3.66-5.27,6.44-7.9,8.49-7.9h.59l-.15-.15c.29-.15,1.02-.29,2.19-.29,1.03,0,1.9.15,2.93.44-.59.44.58.44,0,0,.15.15.44.29.58.29l-.15.15.59.29h-.44c0,.15,0,.29.44.29.29,0,.44,0,.44.15v-.29l.15.15.15.44v.44h.15c0-.73-.29-1.17-1.02-1.46h.15c.73,0,1.32,1.02,2.05,1.32-.59-.44.59-.44,0,0,.15.15.29.29.44.29v-.15c0-.29-.15-.44-.29-.59h.15c.44.44.59.59.59.73l-.29.29.88.88v-.29c-.15-.29-.29-.44-.29-.59.15,0,.73,1.17.88,1.17l-.15-.15h.15c.44,0,.88,1.32,1.32,1.32h-.29c-.15,0-.29-.15-.44-.29l-.15.15.15.15.73.44v.15l-.29.29c.59.15.88.44.88,1.17h.44l.29-.15c.15,0,.15.15.29.58l.29.59.15-.15c0-.44-.29-1.02-1.02-1.76l.15-.15-.29-.44c.73,0,1.32,1.02,1.76,2.93.44,1.9.73,3.22.73,3.95l.29.29-.44-.15c0,.44.29.44.15,1.61l.29.15c.15.15.15,1.46.15,3.95v1.76l-.29,3.51c0-.59-.58,0-.15,0h.15l-.29,5.56-.44,7.75v.44c0,.15-.15,1.32-.29,3.36-.15,1.9-.29,3.07-.29,3.22v.59l-.44-.29c.15,1.02,0,2.05-.29,3.22l-.15-.44-.15.15v.29l.15.15v.29c0,.29,0,.58-.15.73l-.15-.29c.15,1.17-.88,3.36-1.03,3.95l-.29-.29v.15c0,.15,0,.29.15.29v1.17c0-.15-.44-1.02-.44-1.46,0,.29.29,1.17,0,1.46l-.15-.29c0-.15-.15-.15-.15-.29h.29l-.15-.44c-.73,1.02-1.02,1.46-1.17,1.46,0,.59.15.88.29,1.02l-.15-.59c0,.15.29.15.29.29h.15c0-.15,0-.29.15-.44v-.15l-.15-.29.29.15v-.15c0-.15,0-.29-.15-.29h.15c.1,0,.15.05.15.15l.29.15h.15c0,1.03-2.19,1.9-2.34,2.05v-.44c-.15,0-.29.59-.73.59v.29c-.44,0-.58-.15-.73-.44v.29c.1.1.15.2.15.29l-3.07-2.78c.15-.44,0-1.76-.73-3.95-.73-2.34-1.02-3.66-1.02-4.1v-.15c0-.44.15-3.22.29-8.34.15-5.12.29-8.05.29-8.49v-.88c-1.03,1.61-3.37,3.8-4.98,3.66l.15.15c-.44-.15-1.02.15-1.46.15l.15.15c-.15.15-.44.15-1.02.15v.44s-.15,0-.44-.15l-.15-.29h-.15l-.44.15c-.15.15-.29.15-.44.15l.44.15h-.88c-.1.1-.15.2-.15.29h-1.17l.29.15c-.44-.15-.73,0-.73.15h-1.32c-.29,0-.73,1.02-1.17,3.07-.44,1.9-.73,3.07-.73,3.36h-.15c-.15,0-.15-.15-.29-.15.15.59-.29,1.76-1.02,1.76h-.15c-.1-.1-.2-.15-.29-.15-.29,0-.44.15-.44.29-.15.15-.29.15-.44.15-1.32,0-2.78-.73-4.68-2.19.1,0,.15-.05.15-.15h-.15l-1.02-.88v.44h-.15l-.59-.59.44.73c-.44-.29-.73-.59-.73-1.02l-.15.15v-.73c-.29,0-.73-.44-1.32-1.17.15,0,.15-.29,0-.29v.15c-.15-.44-.29-.59-.29-.73h.29v-.15c.15,0,.15-.29,0-.29.1,0,.15-.05.15-.15v.15c.15,0,.15-.29,0-.29.15-.44.29-.73.15-1.02l.44.15v-.73c.15.15.44.29.44-.29h-.15v-.15c.29-.59.44-1.02.44-1.46l1.76-4.39h.29c.15,0,.15-.29,0-.29h-.15l1.17-2.93h.15l-.05-.03ZM775.76,72.68l.15.29h-.44l.29.29v.15l-.29.29-.44-.29.29.44c0,1.17-2.49,4.24-3.36,5.56l-.29.44c-1.46,2.49-2.49,4.68-3.22,6.44h1.02l8.05-1.17.73-.15c.15-3.66.15-6.44.29-8.05v-2.05c.15-2.78,0-4.1-.44-4.1h-.15c-1.03,1.02-1.61,1.76-1.9,2.19l-.29-.29h0Z"/>
      <path d="M809.27,79.99v.59l-.15-.29-.15.15-.73,1.46-1.46,2.93-.59,1.46h-.15v.58c-.44,0-1.02.88-1.76,2.49-.59,1.61-.88,2.63-.88,3.36,0,.15.15.29.29.29-.44-.73,1.61-3.36,1.46-3.95l.29.15c.29-.58.44-1.02.44-1.17h.15c0-.44.44-1.46,1.46-2.93v.44l-5.12,10.97-.15.44c-.15.29-.15.44-.15.59v.15l-.29-.15c.44.73-1.9,3.95-1.9,4.98.15,0,1.32-1.76,1.46-2.34l.15.29c0,1.9-.88,5.85-2.49,5.85v-.73l-.73.73.15.15h-.29l-.44.15c-2.34,0-3.95-3.95-3.95-6.44h.29c0-1.32.44-6,1.46-14.34,3.66-9.8,5.71-14.78,6.15-14.78h.15l.44.15h.15l1.32-.44.15.29h.73c.73,0,1.17,0,1.61-.15.15.44.44.59,1.17.59h.29l-.73-.29h.15c.58,0,1.02.29,1.46.29v-.15c.15.15,1.76.15,1.9.59h-.88v.29c0,.15,1.76.29,1.76,1.02l-.15.15v.29l-.15.29h.59l.15-.15h.15c.1.1.15.2.15.29v.15l-.15.44-2.19,4.54v.73h-.29c.58.29-.59.29,0,0h-.15ZM811.46,46.63c2.49,0,5.56,2.05,6.73,4.39l.15.44v2.78c0,.73-.59,1.17-1.61,1.17-3.51,0-5.27-2.93-5.27-8.78Z"/>
    </g>
  </g>
</svg>